<?xml version="1.0" encoding="UTF-8" standalone="no"?>
<svg
   xmlns:dc="http://purl.org/dc/elements/1.1/"
   xmlns:cc="http://creativecommons.org/ns#"
   xmlns:rdf="http://www.w3.org/1999/02/22-rdf-syntax-ns#"
   xmlns:svg="http://www.w3.org/2000/svg"
   xmlns="http://www.w3.org/2000/svg"
   xmlns:sodipodi="http://sodipodi.sourceforge.net/DTD/sodipodi-0.dtd"
   xmlns:inkscape="http://www.inkscape.org/namespaces/inkscape"
   version="1.1"
   width="5.080000cm"
   height="4.998720cm"
   viewBox="0 0 20000 19680"
   id="svg570"
   sodipodi:docname="ctrl-brd.svg"
   inkscape:version="1.0.2 (1.0.2+r75+1)">
  <metadata
     id="metadata576">
    <rdf:RDF>
      <cc:Work
         rdf:about="">
        <dc:format>image/svg+xml</dc:format>
        <dc:type
           rdf:resource="http://purl.org/dc/dcmitype/StillImage" />
      </cc:Work>
    </rdf:RDF>
  </metadata>
  <defs
     id="defs574" />
  <sodipodi:namedview
     pagecolor="#ffffff"
     bordercolor="#666666"
     borderopacity="1"
     objecttolerance="10"
     gridtolerance="10"
     guidetolerance="10"
     inkscape:pageopacity="0"
     inkscape:pageshadow="2"
     inkscape:window-width="1920"
     inkscape:window-height="1052"
     id="namedview572"
     showgrid="false"
     inkscape:zoom="3.7580453"
     inkscape:cx="95.999999"
     inkscape:cy="94.464003"
     inkscape:window-x="0"
     inkscape:window-y="0"
     inkscape:window-maximized="1"
     inkscape:current-layer="svg570" />
  <title
     id="title2">SVG Picture created as ctrl-brd.svg date 2023/03/12 18:28:42 </title>
  <desc
     id="desc4">Picture generated by PCBNEW </desc>
  <g
     id="g1683">
    <g
       style="fill:#000000; fill-opacity:1;stroke:#000000; stroke-opacity:1; stroke-linecap:round; stroke-linejoin:round;"
       transform="translate(0 0) scale(1 1)"
       id="g6" />
    <g
       style="fill:#000000; fill-opacity:0.0;  stroke:#000000; stroke-width:-0.000393701; stroke-opacity:1;  stroke-linecap:round; stroke-linejoin:round;"
       id="g8" />
    <g
       style="fill:#848484; fill-opacity:0.0;  stroke:#848484; stroke-width:-0.000393701; stroke-opacity:1;  stroke-linecap:round; stroke-linejoin:round;"
       id="g10" />
    <g
       style="fill:#848484; fill-opacity:0.0;  stroke:#848484; stroke-width:59.0551; stroke-opacity:1;  stroke-linecap:round; stroke-linejoin:round;"
       id="g20">
      <path
         d="M9842 18208 L8858 18700 "
         id="path12" />
      <path
         d="M8858 17716 L9842 18208 "
         id="path14" />
      <path
         d="M9842 18208 L10826 17716 "
         id="path16" />
      <path
         d="M10826 18700 L9842 18208 "
         id="path18" />
    </g>
    <g
       style="fill:#848484; fill-opacity:0.0;  stroke:#848484; stroke-width:47.2441; stroke-opacity:1;  stroke-linecap:round; stroke-linejoin:round;"
       id="g70">
      <path
         d="M6342 -996 L6342 12003 "
         id="path22" />
      <path
         d="M6342 12003 L13342 12003 "
         id="path24" />
      <path
         d="M13342 12003 L13342 -996 "
         id="path26" />
      <path
         d="M13342 -996 L6342 -996 "
         id="path28" />
      <path
         d="M7342 3 L7342 12003 "
         id="path30" />
      <path
         d="M12342 3 L12342 12003 "
         id="path32" />
      <path
         d="M6342 3 L7342 3 "
         id="path34" />
      <path
         d="M12342 3 L13342 3 "
         id="path36" />
      <path
         d="M8342 503 L11342 503 "
         id="path38" />
      <path
         d="M11342 503 L11342 -996 "
         id="path40" />
      <path
         d="M11342 -996 L8342 -996 "
         id="path42" />
      <path
         d="M8342 -996 L8342 503 "
         id="path44" />
      <path
         d="M8092 9003 L8092 10003 "
         id="path46" />
      <path
         d="M8092 10003 L8592 10003 "
         id="path48" />
      <path
         d="M8592 10003 L8592 9003 "
         id="path50" />
      <path
         d="M8592 9003 L8092 9003 "
         id="path52" />
      <path
         d="M11592 10003 L11592 9003 "
         id="path54" />
      <path
         d="M11092 10003 L11592 10003 "
         id="path56" />
      <path
         d="M11592 9003 L11092 9003 "
         id="path58" />
      <path
         d="M11092 9003 L11092 10003 "
         id="path60" />
      <path
         d="M7842 6503 L9842 8503 "
         id="path62" />
      <path
         d="M9842 8503 L11842 6503 "
         id="path64" />
      <path
         d="M11842 6503 L9842 4503 "
         id="path66" />
      <path
         d="M9842 4503 L7842 6503 "
         id="path68" />
    </g>
    <g
       style="fill:#848484; fill-opacity:0.0;  stroke:#848484; stroke-width:39.3701; stroke-opacity:1;  stroke-linecap:round; stroke-linejoin:round;"
       id="g302">
      <path
         d="M6341 9144 L5896 9589 "
         id="path72" />
      <path
         d="M6111 8914 L6341 9144 "
         id="path74" />
      <path
         d="M5666 9359 L6111 8914 "
         id="path76" />
      <path
         d="M5896 9589 L5666 9359 "
         id="path78" />
      <path
         d="M6341 11112 L5896 11558 "
         id="path80" />
      <path
         d="M6111 10882 L6341 11112 "
         id="path82" />
      <path
         d="M5666 11328 L6111 10882 "
         id="path84" />
      <path
         d="M5896 11558 L5666 11328 "
         id="path86" />
      <path
         d="M2238 11242 L8048 17052 "
         id="path88" />
      <path
         d="M8048 17052 L6793 18307 "
         id="path90" />
      <path
         d="M6793 18307 L7078 18593 "
         id="path92" />
      <path
         d="M7078 18593 L6831 18840 "
         id="path94" />
      <path
         d="M6831 18840 L450 12460 "
         id="path96" />
      <path
         d="M450 12460 L698 12212 "
         id="path98" />
      <path
         d="M698 12212 L983 12497 "
         id="path100" />
      <path
         d="M983 12497 L2238 11242 "
         id="path102" />
      <path
         d="M3056 12059 L2916 12477 "
         id="path104" />
      <path
         d="M2916 12477 L3334 12337 "
         id="path106" />
      <path
         d="M6545 18555 L6264 18836 "
         id="path108" />
      <path
         d="M6264 18836 L6549 19122 "
         id="path110" />
      <path
         d="M6549 19122 L6302 19369 "
         id="path112" />
      <path
         d="M6302 19369 L-78 12989 "
         id="path114" />
      <path
         d="M-78 12989 L169 12741 "
         id="path116" />
      <path
         d="M169 12741 L454 13026 "
         id="path118" />
      <path
         d="M454 13026 L735 12745 "
         id="path120" />
      <circle
         cx="15157.5"
         cy="5748.03"
         r="393.701"
         id="circle122" />
      <path
         d="M14133 6220 L14685 6771 "
         id="path124" />
      <path
         d="M14133 5275 L14133 6220 "
         id="path126" />
      <path
         d="M14685 4724 L14133 5275 "
         id="path128" />
      <path
         d="M15629 4724 L14685 4724 "
         id="path130" />
      <path
         d="M16181 5275 L15629 4724 "
         id="path132" />
      <path
         d="M16181 6220 L16181 5275 "
         id="path134" />
      <path
         d="M15629 6771 L16181 6220 "
         id="path136" />
      <path
         d="M14685 6771 L15629 6771 "
         id="path138" />
      <path
         d="M15551 6535 L14763 6535 "
         id="path140" />
      <path
         d="M15944 6141 L15551 6535 "
         id="path142" />
      <path
         d="M15944 5354 L15944 6141 "
         id="path144" />
      <path
         d="M15551 4960 L15944 5354 "
         id="path146" />
      <path
         d="M14763 4960 L15551 4960 "
         id="path148" />
      <path
         d="M14370 5354 L14763 4960 "
         id="path150" />
      <path
         d="M14370 6141 L14370 5354 "
         id="path152" />
      <path
         d="M14763 6535 L14370 6141 "
         id="path154" />
      <path
         d="M15787 4488 L15787 4881 "
         id="path156" />
      <path
         d="M15984 4685 L15787 4685 "
         id="path158" />
      <path
         d="M15984 5078 L15984 4488 "
         id="path160" />
      <path
         d="M15984 6417 L15984 7007 "
         id="path162" />
      <path
         d="M15787 7007 L15787 6614 "
         id="path164" />
      <path
         d="M15984 6811 L15787 6811 "
         id="path166" />
      <path
         d="M14527 7007 L14527 6614 "
         id="path168" />
      <path
         d="M14330 6417 L14330 7007 "
         id="path170" />
      <path
         d="M14330 6811 L14527 6811 "
         id="path172" />
      <path
         d="M14527 4488 L14527 4881 "
         id="path174" />
      <path
         d="M14330 5078 L14330 4488 "
         id="path176" />
      <path
         d="M14330 4685 L14527 4685 "
         id="path178" />
      <path
         d="M14330 7007 L14527 7007 "
         id="path180" />
      <path
         d="M15984 7007 L15787 7007 "
         id="path182" />
      <path
         d="M14330 4488 L14527 4488 "
         id="path184" />
      <path
         d="M15984 4488 L15787 4488 "
         id="path186" />
      <path
         d="M6341 8159 L5896 8605 "
         id="path188" />
      <path
         d="M6111 7930 L6341 8159 "
         id="path190" />
      <path
         d="M5666 8375 L6111 7930 "
         id="path192" />
      <path
         d="M5896 8605 L5666 8375 "
         id="path194" />
      <path
         d="M6341 10128 L5896 10573 "
         id="path196" />
      <path
         d="M6111 9898 L6341 10128 "
         id="path198" />
      <path
         d="M5666 10344 L6111 9898 "
         id="path200" />
      <path
         d="M5896 10573 L5666 10344 "
         id="path202" />
      <path
         d="M7569 12260 L8014 12706 "
         id="path204" />
      <path
         d="M7339 12490 L7569 12260 "
         id="path206" />
      <path
         d="M7785 12935 L7339 12490 "
         id="path208" />
      <path
         d="M8014 12706 L7785 12935 "
         id="path210" />
      <path
         d="M12980 12357 L13426 12802 "
         id="path212" />
      <path
         d="M12751 12587 L12980 12357 "
         id="path214" />
      <path
         d="M13196 13032 L12751 12587 "
         id="path216" />
      <path
         d="M13426 12802 L13196 13032 "
         id="path218" />
      <path
         d="M13514 10922 L13959 11367 "
         id="path220" />
      <path
         d="M13284 11151 L13514 10922 "
         id="path222" />
      <path
         d="M13729 11597 L13284 11151 "
         id="path224" />
      <path
         d="M13959 11367 L13729 11597 "
         id="path226" />
      <path
         d="M13575 9880 L14020 10326 "
         id="path228" />
      <path
         d="M13345 10110 L13575 9880 "
         id="path230" />
      <path
         d="M13790 10555 L13345 10110 "
         id="path232" />
      <path
         d="M14020 10326 L13790 10555 "
         id="path234" />
      <path
         d="M11636 17052 L17446 11242 "
         id="path236" />
      <path
         d="M17446 11242 L18701 12497 "
         id="path238" />
      <path
         d="M18701 12497 L18986 12212 "
         id="path240" />
      <path
         d="M18986 12212 L19234 12460 "
         id="path242" />
      <path
         d="M19234 12460 L12854 18840 "
         id="path244" />
      <path
         d="M12854 18840 L12606 18593 "
         id="path246" />
      <path
         d="M12606 18593 L12891 18307 "
         id="path248" />
      <path
         d="M12891 18307 L11636 17052 "
         id="path250" />
      <path
         d="M12453 16235 L12870 16374 "
         id="path252" />
      <path
         d="M12870 16374 L12731 15956 "
         id="path254" />
      <path
         d="M18949 12745 L19230 13026 "
         id="path256" />
      <path
         d="M19230 13026 L19515 12741 "
         id="path258" />
      <path
         d="M19515 12741 L19763 12989 "
         id="path260" />
      <path
         d="M19763 12989 L13382 19369 "
         id="path262" />
      <path
         d="M13382 19369 L13135 19122 "
         id="path264" />
      <path
         d="M13135 19122 L13420 18836 "
         id="path266" />
      <path
         d="M13420 18836 L13139 18555 "
         id="path268" />
      <g
         id="g270" />
      <g
         id="g272" />
      <g
         id="g274" />
      <g
         id="g276" />
      <g
         id="g278" />
      <g
         id="g280" />
      <g
         id="g282" />
      <g
         id="g284" />
      <g
         id="g286" />
      <g
         id="g288" />
      <g
         id="g290" />
      <g
         id="g292" />
      <g
         id="g294" />
      <g
         id="g296" />
      <g
         id="g298" />
      <g
         id="g300" />
    </g>
    <g
       style="fill:#848484; fill-opacity:0.0;  stroke:#848484; stroke-width:39.3701; stroke-opacity:1;  stroke-linecap:round; stroke-linejoin:round;"
       id="g304" />
    <g
       style="fill:#848484; fill-opacity:0.0;  stroke:#848484; stroke-width:23.622; stroke-opacity:1;  stroke-linecap:round; stroke-linejoin:round;"
       id="g328">
      <g
         transform="rotate(-45 6003.94 9251.97)"
         id="g308">
        <text
           x="6003.94"
           y="9330.71"
           textLength="338.17"
           font-size="209.974"
           lengthAdjust="spacingAndGlyphs"
           text-anchor="middle"
           opacity="0"
           id="text306">R6</text>
      </g>
      <path
         d="M6035 9320 L5945 9304 "
         id="path310" />
      <path
         d="M5972 9384 L5860 9273 L5903 9230 L5919 9225 L5929 9225 L5945 9230 L5961 9246 L5966 9262 L5966 9273 L5961 9289 L5919 9331 "
         id="path312" />
      <path
         d="M6019 9114 L5998 9135 L5993 9151 L5993 9161 L5998 9188 L6014 9214 L6056 9257 L6072 9262 L6083 9262 L6099 9257 L6120 9236 L6125 9220 L6125 9209 L6120 9193 L6094 9167 L6078 9161 L6067 9161 L6051 9167 L6030 9188 L6025 9204 L6025 9214 L6030 9230 "
         id="path314" />
      <g
         transform="rotate(-45 6003.94 11220.5)"
         id="g318">
        <text
           x="6003.94"
           y="11299.2"
           textLength="338.17"
           font-size="209.974"
           lengthAdjust="spacingAndGlyphs"
           text-anchor="middle"
           opacity="0"
           id="text316">R4</text>
      </g>
      <path
         d="M6035 11289 L5945 11273 "
         id="path320" />
      <path
         d="M5972 11353 L5860 11241 L5903 11199 L5919 11193 L5929 11193 L5945 11199 L5961 11215 L5966 11231 L5966 11241 L5961 11257 L5919 11300 "
         id="path322" />
      <path
         d="M6056 11119 L6131 11193 "
         id="path324" />
      <path
         d="M5988 11103 L6041 11209 L6109 11140 "
         id="path326" />
    </g>
    <g
       style="fill:#848484; fill-opacity:0.0;  stroke:#848484; stroke-width:59.0551; stroke-opacity:1;  stroke-linecap:round; stroke-linejoin:round;"
       id="g364">
      <g
         transform="rotate(-90 16633.9 5748.03)"
         id="g332">
        <text
           x="16633.9"
           y="5944.88"
           textLength="2580.39"
           font-size="524.934"
           lengthAdjust="spacingAndGlyphs"
           text-anchor="middle"
           opacity="0"
           id="text330">SW_Push</text>
      </g>
      <path
         d="M16793 6947 L16811 6891 L16811 6797 L16793 6760 L16774 6741 L16736 6722 L16699 6722 L16661 6741 L16643 6760 L16624 6797 L16605 6872 L16586 6910 L16568 6929 L16530 6947 L16493 6947 L16455 6929 L16437 6910 L16418 6872 L16418 6779 L16437 6722 "
         id="path334" />
      <path
         d="M16418 6591 L16811 6497 L16530 6422 L16811 6347 L16418 6254 "
         id="path336" />
      <path
         d="M16849 6197 L16849 5898 "
         id="path338" />
      <path
         d="M16811 5804 L16418 5804 L16418 5654 L16437 5616 L16455 5598 L16493 5579 L16549 5579 L16586 5598 L16605 5616 L16624 5654 L16624 5804 "
         id="path340" />
      <path
         d="M16549 5241 L16811 5241 "
         id="path342" />
      <path
         d="M16549 5410 L16755 5410 L16793 5391 L16811 5354 L16811 5298 L16793 5260 L16774 5241 "
         id="path344" />
      <path
         d="M16793 5073 L16811 5035 L16811 4960 L16793 4923 L16755 4904 L16736 4904 L16699 4923 L16680 4960 L16680 5016 L16661 5054 L16624 5073 L16605 5073 L16568 5054 L16549 5016 L16549 4960 L16568 4923 "
         id="path346" />
      <path
         d="M16811 4735 L16418 4735 "
         id="path348" />
      <path
         d="M16811 4566 L16605 4566 L16568 4585 L16549 4623 L16549 4679 L16568 4716 L16586 4735 "
         id="path350" />
      <g
         transform="rotate(-90 13681.1 5748.03)"
         id="g354">
        <text
           x="13681.1"
           y="5944.88"
           textLength="1276.62"
           font-size="524.934"
           lengthAdjust="spacingAndGlyphs"
           text-anchor="middle"
           opacity="0"
           id="text352">SW1</text>
      </g>
      <path
         d="M13840 6272 L13859 6216 L13859 6122 L13840 6085 L13821 6066 L13784 6047 L13746 6047 L13709 6066 L13690 6085 L13671 6122 L13652 6197 L13634 6235 L13615 6254 L13577 6272 L13540 6272 L13502 6254 L13484 6235 L13465 6197 L13465 6104 L13484 6047 "
         id="path356" />
      <path
         d="M13465 5916 L13859 5823 L13577 5748 L13859 5673 L13465 5579 "
         id="path358" />
      <path
         d="M13859 5223 L13859 5448 "
         id="path360" />
      <path
         d="M13859 5335 L13465 5335 L13521 5373 L13559 5410 L13577 5448 "
         id="path362" />
    </g>
    <g
       style="fill:#848484; fill-opacity:0.0;  stroke:#848484; stroke-width:23.622; stroke-opacity:1;  stroke-linecap:round; stroke-linejoin:round;"
       id="g430">
      <g
         transform="rotate(-45 6003.94 8267.72)"
         id="g368">
        <text
           x="6003.94"
           y="8346.46"
           textLength="384.233"
           font-size="209.974"
           lengthAdjust="spacingAndGlyphs"
           text-anchor="middle"
           opacity="0"
           id="text366">R7</text>
      </g>
      <path
         d="M6035 8336 L5945 8320 "
         id="path370" />
      <path
         d="M5972 8400 L5860 8288 L5903 8246 L5919 8241 L5929 8241 L5945 8246 L5961 8262 L5966 8278 L5966 8288 L5961 8304 L5919 8347 "
         id="path372" />
      <path
         d="M5961 8188 L6035 8113 L6099 8273 "
         id="path374" />
      <g
         transform="rotate(-45 6003.94 10236.2)"
         id="g378">
        <text
           x="6003.94"
           y="10315"
           textLength="338.17"
           font-size="209.974"
           lengthAdjust="spacingAndGlyphs"
           text-anchor="middle"
           opacity="0"
           id="text376">R5</text>
      </g>
      <path
         d="M6035 10305 L5945 10289 "
         id="path380" />
      <path
         d="M5972 10368 L5860 10257 L5903 10215 L5919 10209 L5929 10209 L5945 10215 L5961 10230 L5966 10246 L5966 10257 L5961 10273 L5919 10315 "
         id="path382" />
      <path
         d="M6025 10093 L5972 10146 L6019 10204 L6019 10193 L6025 10177 L6051 10151 L6067 10146 L6078 10146 L6094 10151 L6120 10177 L6125 10193 L6125 10204 L6120 10220 L6094 10246 L6078 10252 L6067 10252 "
         id="path384" />
      <g
         transform="rotate(45 7677.17 12598.4)"
         id="g388">
        <text
           x="7677.17"
           y="12677.2"
           textLength="338.17"
           font-size="209.974"
           lengthAdjust="spacingAndGlyphs"
           text-anchor="middle"
           opacity="0"
           id="text386">R3</text>
      </g>
      <path
         d="M7608 12630 L7624 12540 "
         id="path390" />
      <path
         d="M7544 12566 L7655 12455 L7698 12497 L7703 12513 L7703 12524 L7698 12540 L7682 12556 L7666 12561 L7655 12561 L7640 12556 L7597 12513 "
         id="path392" />
      <path
         d="M7756 12556 L7825 12624 L7746 12630 L7762 12646 L7767 12662 L7767 12672 L7762 12688 L7735 12715 L7719 12720 L7708 12720 L7693 12715 L7661 12683 L7655 12667 L7655 12656 "
         id="path394" />
      <g
         transform="rotate(45 13088.7 12695)"
         id="g398">
        <text
           x="13088.7"
           y="12773.7"
           textLength="338.17"
           font-size="209.974"
           lengthAdjust="spacingAndGlyphs"
           text-anchor="middle"
           opacity="0"
           id="text396">R2</text>
      </g>
      <path
         d="M13019 12726 L13035 12636 "
         id="path400" />
      <path
         d="M12956 12663 L13067 12551 L13109 12594 L13115 12610 L13115 12620 L13109 12636 L13093 12652 L13078 12657 L13067 12657 L13051 12652 L13009 12610 "
         id="path402" />
      <path
         d="M13162 12668 L13173 12668 L13189 12673 L13215 12700 L13221 12716 L13221 12726 L13215 12742 L13205 12753 L13184 12763 L13056 12763 L13125 12832 "
         id="path404" />
      <g
         transform="rotate(45 13622 11259.8)"
         id="g408">
        <text
           x="13622"
           y="11338.6"
           textLength="338.17"
           font-size="209.974"
           lengthAdjust="spacingAndGlyphs"
           text-anchor="middle"
           opacity="0"
           id="text406">R1</text>
      </g>
      <path
         d="M13553 11291 L13569 11201 "
         id="path410" />
      <path
         d="M13489 11228 L13600 11116 L13643 11159 L13648 11175 L13648 11185 L13643 11201 L13627 11217 L13611 11222 L13600 11222 L13584 11217 L13542 11175 "
         id="path412" />
      <path
         d="M13659 11397 L13595 11334 "
         id="path414" />
      <path
         d="M13627 11365 L13738 11254 L13712 11259 L13690 11259 L13675 11254 "
         id="path416" />
      <g
         transform="rotate(45 13683 10218.4)"
         id="g420">
        <text
           x="13683"
           y="10297.2"
           textLength="338.17"
           font-size="209.974"
           lengthAdjust="spacingAndGlyphs"
           text-anchor="middle"
           opacity="0"
           id="text418">R0</text>
      </g>
      <path
         d="M13614 10250 L13629 10160 "
         id="path422" />
      <path
         d="M13550 10186 L13661 10075 L13704 10117 L13709 10133 L13709 10144 L13704 10160 L13688 10175 L13672 10181 L13661 10181 L13645 10175 L13603 10133 "
         id="path424" />
      <path
         d="M13794 10207 L13804 10218 L13810 10234 L13810 10244 L13804 10260 L13789 10287 L13762 10313 L13736 10329 L13720 10335 L13709 10335 L13693 10329 L13682 10319 L13677 10303 L13677 10292 L13682 10276 L13698 10250 L13725 10223 L13751 10207 L13767 10202 L13778 10202 L13794 10207 "
         id="path426" />
      <g
         id="g428" />
    </g>
    <g
       style="fill:#000000; fill-opacity:0.0;  stroke:#000000; stroke-width:23.622; stroke-opacity:1;  stroke-linecap:round; stroke-linejoin:round;"
       id="g432" />
    <g
       style="fill:#C2C200; fill-opacity:0.0;  stroke:#C2C200; stroke-width:23.622; stroke-opacity:1;  stroke-linecap:round; stroke-linejoin:round;"
       id="g434" />
    <g
       style="fill:#C2C200; fill-opacity:0.0;  stroke:#C2C200; stroke-width:118.11; stroke-opacity:1;  stroke-linecap:round; stroke-linejoin:round;"
       id="g482">
      <path
         d="M13592 12253 L13592 -996 "
         id="path436" />
      <path
         d="M6092 12253 L13592 12253 "
         id="path438" />
      <path
         d="M6092 -996 L6092 12253 "
         id="path440" />
      <circle
         cx="17716.5"
         cy="5905.51"
         r="629.921"
         id="circle442" />
      <circle
         cx="1968.5"
         cy="5905.51"
         r="629.921"
         id="circle444" />
      <circle
         cx="9842.52"
         cy="18208.7"
         r="629.921"
         id="circle446" />
      <g
         id="g448" />
      <g
         id="g450" />
      <g
         id="g452" />
      <g
         id="g454" />
      <g
         id="g456" />
      <g
         id="g458" />
      <g
         id="g460" />
      <g
         id="g462" />
      <g
         id="g464" />
      <g
         id="g466" />
      <g
         id="g468" />
      <g
         id="g470" />
      <g
         id="g472" />
      <g
         id="g474" />
      <g
         id="g476" />
      <g
         id="g478" />
      <g
         id="g480" />
    </g>
    <g
       style="fill:#000000; fill-opacity:0.0;  stroke:#000000; stroke-width:118.11; stroke-opacity:1;  stroke-linecap:round; stroke-linejoin:round;"
       id="g484" />
    <g
       style="fill:#C2C200; fill-opacity:0.0;  stroke:#C2C200; stroke-width:118.11; stroke-opacity:1;  stroke-linecap:round; stroke-linejoin:round;"
       id="g568">
      <path
         d="M11909.4 12007.9 A393.701 393.701 0.0 0 0 12303.1 11614.2"
         id="path486" />
      <path
         d="M7381.89 11614.2 A393.701 393.701 0.0 0 0 7775.59 12007.9"
         id="path488" />
      <path
         d="M12598 19685 L19685 12598 "
         id="path490" />
      <path
         d="M7086 19685 L12598 19685 "
         id="path492" />
      <path
         d="M0 12598 L7086 19685 "
         id="path494" />
      <path
         d="M7775 12007 L11909 12007 "
         id="path496" />
      <path
         d="M14271.7 393.701 A393.701 393.701 0.0 0 0 13878 0"
         id="path498" />
      <path
         d="M12696.9 0 A393.701 393.701 0.0 0 0 12303.1 393.701"
         id="path500" />
      <path
         d="M7381.89 393.701 A393.701 393.701 0.0 0 0 6988.19 0"
         id="path502" />
      <path
         d="M5807.09 0 A393.701 393.701 0.0 0 0 5413.39 393.701"
         id="path504" />
      <path
         d="M14271 393 L14271 1968 "
         id="path506" />
      <path
         d="M12696 0 L13877 0 "
         id="path508" />
      <path
         d="M12303 11614 L12303 393 "
         id="path510" />
      <path
         d="M7381 393 L7381 11614 "
         id="path512" />
      <path
         d="M5807 0 L6988 0 "
         id="path514" />
      <path
         d="M5413 1968 L5413 393 "
         id="path516" />
      <path
         d="M16240 3937 L17716 3937 "
         id="path518" />
      <path
         d="M1968 3937 L3444 3937 "
         id="path520" />
      <path
         d="M0 12598 L0 5905 "
         id="path522" />
      <path
         d="M19685 5905 L19685 12598 "
         id="path524" />
      <path
         d="M14271.7 1968.5 A1968.5 1968.5 0.0 0 0 16240.2 3937.01"
         id="path526" />
      <path
         d="M3444.88 3937.01 A1968.5 1968.5 0.0 0 0 5413.39 1968.5"
         id="path528" />
      <path
         d="M1968.5 3937.01 A1968.5 1968.5 0.0 0 0 0 5905.51"
         id="path530" />
      <path
         d="M19685 5905.51 A1968.5 1968.5 0.0 0 0 17716.5 3937.01"
         id="path532" />
      <g
         id="g534" />
      <g
         id="g536" />
      <g
         id="g538" />
      <g
         id="g540" />
      <g
         id="g542" />
      <g
         id="g544" />
      <g
         id="g546" />
      <g
         id="g548" />
      <g
         id="g550" />
      <g
         id="g552" />
      <g
         id="g554" />
      <g
         id="g556" />
      <g
         id="g558" />
      <g
         id="g560" />
      <g
         id="g562" />
      <g
         id="g564" />
      <g
         id="g566" />
    </g>
  </g>
</svg>
