<?xml version="1.0" standalone="no"?>
 <!DOCTYPE svg PUBLIC "-//W3C//DTD SVG 1.1//EN" 
 "http://www.w3.org/Graphics/SVG/1.1/DTD/svg11.dtd"> 
<svg
  xmlns:svg="http://www.w3.org/2000/svg"
  xmlns="http://www.w3.org/2000/svg"
  xmlns:xlink="http://www.w3.org/1999/xlink"
  version="1.1"
  width="15.532100cm" height="10.480040cm" viewBox="0 0 61150 41260">
<title>SVG Picture created as hand-brd.svg date 2023/02/05 23:39:21 </title>
  <desc>Picture generated by PCBNEW </desc>
<g style="fill:#000000; fill-opacity:1;stroke:#000000; stroke-opacity:1;
stroke-linecap:round; stroke-linejoin:round;"
 transform="translate(0 0) scale(1 1)">
</g>
<g style="fill:#000000; fill-opacity:0.0; 
stroke:#000000; stroke-width:-0.000393701; stroke-opacity:1; 
stroke-linecap:round; stroke-linejoin:round;">
</g>
<g style="fill:#C2C2C2; fill-opacity:0.0; 
stroke:#C2C2C2; stroke-width:-0.000393701; stroke-opacity:1; 
stroke-linecap:round; stroke-linejoin:round;">
</g>
<g style="fill:#C2C2C2; fill-opacity:0.0; 
stroke:#C2C2C2; stroke-width:19.685; stroke-opacity:1; 
stroke-linecap:round; stroke-linejoin:round;">
<path d="M46445 23456
L46445 24031
" />
<path d="M46445 24031
L45146 24031
" />
<path d="M45146 24031
L45146 23456
" />
<path d="M45146 23456
L46445 23456
" />
</g>
<g style="fill:#C2C2C2; fill-opacity:0.0; 
stroke:#C2C2C2; stroke-width:47.2441; stroke-opacity:1; 
stroke-linecap:round; stroke-linejoin:round;">
<path d="M45106 9078
L37823 9078
" />
<path d="M45106 16362
L45106 9078
" />
<path d="M37823 16362
L45106 16362
" />
<path d="M37823 9078
L37823 16362
" />
<path d="M30146 23
L22862 23
" />
<path d="M30146 7307
L30146 23
" />
<path d="M22862 7307
L30146 7307
" />
<path d="M22862 23
L22862 7307
" />
<path d="M22666 8291
L15382 8291
" />
<path d="M22666 15574
L22666 8291
" />
<path d="M15382 15574
L22666 15574
" />
<path d="M15382 8291
L15382 15574
" />
<path d="M7705 1992
L421 1992
" />
<path d="M7705 9275
L7705 1992
" />
<path d="M421 9275
L7705 9275
" />
<path d="M421 1992
L421 9275
" />
<path d="M7705 9472
L421 9472
" />
<path d="M7705 16755
L7705 9472
" />
<path d="M421 16755
L7705 16755
" />
<path d="M421 9472
L421 16755
" />
<path d="M7705 16952
L421 16952
" />
<path d="M7705 24236
L7705 16952
" />
<path d="M421 24236
L7705 24236
" />
<path d="M421 16952
L421 24236
" />
<path d="M15185 1992
L7902 1992
" />
<path d="M15185 9275
L15185 1992
" />
<path d="M7902 9275
L15185 9275
" />
<path d="M7902 1992
L7902 9275
" />
<path d="M15185 9472
L7902 9472
" />
<path d="M15185 16755
L15185 9472
" />
<path d="M7902 16755
L15185 16755
" />
<path d="M7902 9472
L7902 16755
" />
<path d="M15185 16952
L7902 16952
" />
<path d="M15185 24236
L15185 16952
" />
<path d="M7902 24236
L15185 24236
" />
<path d="M7902 16952
L7902 24236
" />
<path d="M15185 24433
L7902 24433
" />
<path d="M15185 31716
L15185 24433
" />
<path d="M7902 31716
L15185 31716
" />
<path d="M7902 24433
L7902 31716
" />
<path d="M22666 811
L15382 811
" />
<path d="M22666 8094
L22666 811
" />
<path d="M15382 8094
L22666 8094
" />
<path d="M15382 811
L15382 8094
" />
<path d="M22666 15771
L15382 15771
" />
<path d="M22666 23055
L22666 15771
" />
<path d="M15382 23055
L22666 23055
" />
<path d="M15382 15771
L15382 23055
" />
<path d="M22666 23251
L15382 23251
" />
<path d="M22666 30535
L22666 23251
" />
<path d="M15382 30535
L22666 30535
" />
<path d="M15382 23251
L15382 30535
" />
<path d="M30146 7503
L22862 7503
" />
<path d="M30146 14787
L30146 7503
" />
<path d="M22862 14787
L30146 14787
" />
<path d="M22862 7503
L22862 14787
" />
<path d="M30146 14984
L22862 14984
" />
<path d="M30146 22267
L30146 14984
" />
<path d="M22862 22267
L30146 22267
" />
<path d="M22862 14984
L22862 22267
" />
<path d="M30146 22464
L22862 22464
" />
<path d="M30146 29748
L30146 22464
" />
<path d="M22862 29748
L30146 29748
" />
<path d="M22862 22464
L22862 29748
" />
<path d="M37626 811
L30343 811
" />
<path d="M37626 8094
L37626 811
" />
<path d="M30343 8094
L37626 8094
" />
<path d="M30343 811
L30343 8094
" />
<path d="M37626 8291
L30343 8291
" />
<path d="M37626 15574
L37626 8291
" />
<path d="M30343 15574
L37626 15574
" />
<path d="M30343 8291
L30343 15574
" />
<path d="M37626 15771
L30343 15771
" />
<path d="M37626 23055
L37626 15771
" />
<path d="M30343 23055
L37626 23055
" />
<path d="M30343 15771
L30343 23055
" />
<path d="M37626 23251
L30343 23251
" />
<path d="M37626 30535
L37626 23251
" />
<path d="M30343 30535
L37626 30535
" />
<path d="M30343 23251
L30343 30535
" />
<path d="M45106 1598
L37823 1598
" />
<path d="M45106 8881
L45106 1598
" />
<path d="M37823 8881
L45106 8881
" />
<path d="M37823 1598
L37823 8881
" />
<path d="M45106 16559
L37823 16559
" />
<path d="M45106 23842
L45106 16559
" />
<path d="M37823 23842
L45106 23842
" />
<path d="M37823 16559
L37823 23842
" />
<path d="M45106 24039
L37823 24039
" />
<path d="M45106 31322
L45106 24039
" />
<path d="M37823 31322
L45106 31322
" />
<path d="M37823 24039
L37823 31322
" />
<path d="M55617 31328
L50467 36478
" />
<path d="M50467 26178
L55617 31328
" />
<path d="M45317 31328
L50467 26178
" />
<path d="M50467 36478
L45317 31328
" />
<path d="M60906 36618
L55756 41768
" />
<path d="M55756 31467
L60906 36618
" />
<path d="M50606 36618
L55756 31467
" />
<path d="M55756 41768
L50606 36618
" />
</g>
<g style="fill:#C2C2C2; fill-opacity:0.0; 
stroke:#C2C2C2; stroke-width:19.685; stroke-opacity:1; 
stroke-linecap:round; stroke-linejoin:round;">
<path d="M46465 26090
L50520 26090
" />
<path d="M50520 26090
L50520 16673
" />
<path d="M50520 16673
L46465 16673
" />
<path d="M46465 16673
L46465 26090
" />
<path d="M46445 24047
L46445 24622
" />
<path d="M46445 24622
L45146 24622
" />
<path d="M45146 24622
L45146 24047
" />
<path d="M45146 24047
L46445 24047
" />
<g >
</g>
<g >
</g>
<g >
</g>
<g >
</g>
<g >
</g>
<g >
</g>
<g >
</g>
<g >
</g>
<g >
</g>
<g >
</g>
<g >
</g>
<g >
</g>
<g >
</g>
<g >
</g>
<g >
</g>
<g >
</g>
<g >
</g>
<g >
</g>
<g >
</g>
<g >
</g>
<g >
</g>
<g >
</g>
<g >
</g>
<g >
</g>
<g >
</g>
<g >
</g>
<g >
</g>
<g >
</g>
<g >
</g>
<g >
</g>
<g >
</g>
<g >
</g>
<g >
</g>
<g >
</g>
<g >
</g>
<g >
</g>
</g>
<g style="fill:#000000; fill-opacity:0.0; 
stroke:#000000; stroke-width:19.685; stroke-opacity:1; 
stroke-linecap:round; stroke-linejoin:round;">
</g>
<g style="fill:#C2C200; fill-opacity:0.0; 
stroke:#C2C200; stroke-width:19.685; stroke-opacity:1; 
stroke-linecap:round; stroke-linejoin:round;">
</g>
<g style="fill:#C2C200; fill-opacity:0.0; 
stroke:#C2C200; stroke-width:118.11; stroke-opacity:1; 
stroke-linecap:round; stroke-linejoin:round;">
<path d="M58394 18625
L58394 24137
" />
<path d="M56425.9 26106.3 A1968.5 1968.5 0.0 0 0 58394.4 24137.8" />
<path d="M58394.4 18626 A1968.5 1968.5 0.0 0 0 56425.9 16657.5" />
<path d="M47173 16657
L56425 16657
" />
<path d="M47173.9 16657.5 A787.402 787.402 0.0 0 0 46386.5 17444.9" />
<path d="M45992.8 23350.4 A393.701 393.701 0.0 0 0 46386.5 22956.7" />
<path d="M46583 25122
L46583 25318
" />
<path d="M45402.3 23350.4 A393.701 393.701 0.0 0 0 45008.6 23744.1" />
<path d="M45008.6 24334.6 A393.701 393.701 0.0 0 0 45402.3 24728.3" />
<path d="M46583.4 25122 A393.701 393.701 0.0 0 0 46189.7 24728.3" />
<path d="M46583.4 25318.9 A787.402 787.402 0.0 0 0 47370.8 26106.3" />
<path d="M45402 24728
L46189 24728
" />
<path d="M46386 22956
L46386 17444
" />
<path d="M45402 23350
L45992 23350
" />
<path d="M45008 24334
L45008 23744
" />
<path d="M56425 26106
L47370 26106
" />
<path d="M39449 15988.2 A393.701 393.701 0.0 0 0 39842.7 16381.9" />
<path d="M43087.8 16381.9 A393.701 393.701 0.0 0 0 43481.5 15988.2" />
<path d="M43827.5 13507.9 A1181.1 1181.1 0.0 0 0 44173.4 12672.7" />
<path d="M43827.5 13507.9 A1181.1 1181.1 0.0 0 0 43481.5 14343" />
<path d="M39449 14343 A1181.1 1181.1 0.0 0 0 39103.1 13507.9" />
<path d="M38757.1 12672.7 A1181.1 1181.1 0.0 0 0 39103.1 13507.9" />
<path d="M41119.3 9964.57 A2362.2 2362.2 0.0 0 0 38757.1 12326.8" />
<path d="M44173.4 12326.8 A2362.2 2362.2 0.0 0 0 41811.2 9964.57" />
<path d="M41811 9964
L41119 9964
" />
<path d="M44173 12326
L44173 12672
" />
<path d="M38757 12672
L38757 12326
" />
<path d="M39842 16381
L43087 16381
" />
<path d="M39448 14343
L39448 15988
" />
<path d="M43481 15988
L43481 14343
" />
<path d="M24488.4 6933.07 A393.701 393.701 0.0 0 0 24882.1 7326.77" />
<path d="M28127.2 7326.77 A393.701 393.701 0.0 0 0 28520.9 6933.07" />
<path d="M28866.8 4452.76 A1181.1 1181.1 0.0 0 0 29212.8 3617.59" />
<path d="M28866.8 4452.76 A1181.1 1181.1 0.0 0 0 28520.9 5287.92" />
<path d="M24488.4 5287.92 A1181.1 1181.1 0.0 0 0 24142.4 4452.76" />
<path d="M23796.5 3617.59 A1181.1 1181.1 0.0 0 0 24142.4 4452.76" />
<path d="M26158.7 909.449 A2362.2 2362.2 0.0 0 0 23796.5 3271.65" />
<path d="M29212.8 3271.65 A2362.2 2362.2 0.0 0 0 26850.6 909.449" />
<path d="M26850 909
L26158 909
" />
<path d="M29212 3271
L29212 3617
" />
<path d="M23796 3617
L23796 3271
" />
<path d="M24882 7326
L28127 7326
" />
<path d="M24488 5287
L24488 6933
" />
<path d="M28520 6933
L28520 5287
" />
<path d="M17008 15200.8 A393.701 393.701 0.0 0 0 17401.7 15594.5" />
<path d="M20646.9 15594.5 A393.701 393.701 0.0 0 0 21040.6 15200.8" />
<path d="M21386.5 12720.5 A1181.1 1181.1 0.0 0 0 21732.5 11885.3" />
<path d="M21386.5 12720.5 A1181.1 1181.1 0.0 0 0 21040.6 13555.6" />
<path d="M17008 13555.6 A1181.1 1181.1 0.0 0 0 16662.1 12720.5" />
<path d="M16316.2 11885.3 A1181.1 1181.1 0.0 0 0 16662.1 12720.5" />
<path d="M18678.4 9177.17 A2362.2 2362.2 0.0 0 0 16316.2 11539.4" />
<path d="M21732.5 11539.4 A2362.2 2362.2 0.0 0 0 19370.3 9177.17" />
<path d="M19370 9177
L18678 9177
" />
<path d="M21732 11539
L21732 11885
" />
<path d="M16316 11885
L16316 11539
" />
<path d="M17401 15594
L20646 15594
" />
<path d="M17008 13555
L17008 15200
" />
<path d="M21040 15200
L21040 13555
" />
<path d="M2047.42 8901.58 A393.701 393.701 0.0 0 0 2441.12 9295.28" />
<path d="M5686.25 9295.28 A393.701 393.701 0.0 0 0 6079.95 8901.58" />
<path d="M6425.89 6421.26 A1181.1 1181.1 0.0 0 0 6771.83 5586.09" />
<path d="M6425.89 6421.26 A1181.1 1181.1 0.0 0 0 6079.95 7256.43" />
<path d="M2047.42 7256.43 A1181.1 1181.1 0.0 0 0 1701.48 6421.26" />
<path d="M1355.54 5586.09 A1181.1 1181.1 0.0 0 0 1701.48 6421.26" />
<path d="M3717.75 2877.95 A2362.2 2362.2 0.0 0 0 1355.54 5240.16" />
<path d="M6771.83 5240.16 A2362.2 2362.2 0.0 0 0 4409.62 2877.95" />
<path d="M4409 2877
L3717 2877
" />
<path d="M6771 5240
L6771 5586
" />
<path d="M1355 5586
L1355 5240
" />
<path d="M2441 9295
L5686 9295
" />
<path d="M2047 7256
L2047 8901
" />
<path d="M6079 8901
L6079 7256
" />
<path d="M2047.42 16381.9 A393.701 393.701 0.0 0 0 2441.12 16775.6" />
<path d="M5686.25 16775.6 A393.701 393.701 0.0 0 0 6079.95 16381.9" />
<path d="M6425.89 13901.6 A1181.1 1181.1 0.0 0 0 6771.83 13066.4" />
<path d="M6425.89 13901.6 A1181.1 1181.1 0.0 0 0 6079.95 14736.7" />
<path d="M2047.42 14736.7 A1181.1 1181.1 0.0 0 0 1701.48 13901.6" />
<path d="M1355.54 13066.4 A1181.1 1181.1 0.0 0 0 1701.48 13901.6" />
<path d="M3717.75 10358.3 A2362.2 2362.2 0.0 0 0 1355.54 12720.5" />
<path d="M6771.83 12720.5 A2362.2 2362.2 0.0 0 0 4409.62 10358.3" />
<path d="M4409 10358
L3717 10358
" />
<path d="M6771 12720
L6771 13066
" />
<path d="M1355 13066
L1355 12720
" />
<path d="M2441 16775
L5686 16775
" />
<path d="M2047 14736
L2047 16381
" />
<path d="M6079 16381
L6079 14736
" />
<path d="M2047.42 23862.2 A393.701 393.701 0.0 0 0 2441.12 24255.9" />
<path d="M5686.25 24255.9 A393.701 393.701 0.0 0 0 6079.95 23862.2" />
<path d="M6425.89 21381.9 A1181.1 1181.1 0.0 0 0 6771.83 20546.7" />
<path d="M6425.89 21381.9 A1181.1 1181.1 0.0 0 0 6079.95 22217.1" />
<path d="M2047.42 22217.1 A1181.1 1181.1 0.0 0 0 1701.48 21381.9" />
<path d="M1355.54 20546.7 A1181.1 1181.1 0.0 0 0 1701.48 21381.9" />
<path d="M3717.75 17838.6 A2362.2 2362.2 0.0 0 0 1355.54 20200.8" />
<path d="M6771.83 20200.8 A2362.2 2362.2 0.0 0 0 4409.62 17838.6" />
<path d="M4409 17838
L3717 17838
" />
<path d="M6771 20200
L6771 20546
" />
<path d="M1355 20546
L1355 20200
" />
<path d="M2441 24255
L5686 24255
" />
<path d="M2047 22217
L2047 23862
" />
<path d="M6079 23862
L6079 22217
" />
<path d="M9527.73 8901.58 A393.701 393.701 0.0 0 0 9921.43 9295.28" />
<path d="M13166.6 9295.28 A393.701 393.701 0.0 0 0 13560.3 8901.58" />
<path d="M13906.2 6421.26 A1181.1 1181.1 0.0 0 0 14252.1 5586.09" />
<path d="M13906.2 6421.26 A1181.1 1181.1 0.0 0 0 13560.3 7256.43" />
<path d="M9527.73 7256.43 A1181.1 1181.1 0.0 0 0 9181.8 6421.26" />
<path d="M8835.86 5586.09 A1181.1 1181.1 0.0 0 0 9181.8 6421.26" />
<path d="M11198.1 2877.95 A2362.2 2362.2 0.0 0 0 8835.86 5240.16" />
<path d="M14252.1 5240.16 A2362.2 2362.2 0.0 0 0 11889.9 2877.95" />
<path d="M11889 2877
L11198 2877
" />
<path d="M14252 5240
L14252 5586
" />
<path d="M8835 5586
L8835 5240
" />
<path d="M9921 9295
L13166 9295
" />
<path d="M9527 7256
L9527 8901
" />
<path d="M13560 8901
L13560 7256
" />
<path d="M9527.73 16381.9 A393.701 393.701 0.0 0 0 9921.43 16775.6" />
<path d="M13166.6 16775.6 A393.701 393.701 0.0 0 0 13560.3 16381.9" />
<path d="M13906.2 13901.6 A1181.1 1181.1 0.0 0 0 14252.1 13066.4" />
<path d="M13906.2 13901.6 A1181.1 1181.1 0.0 0 0 13560.3 14736.7" />
<path d="M9527.73 14736.7 A1181.1 1181.1 0.0 0 0 9181.8 13901.6" />
<path d="M8835.86 13066.4 A1181.1 1181.1 0.0 0 0 9181.8 13901.6" />
<path d="M11198.1 10358.3 A2362.2 2362.2 0.0 0 0 8835.86 12720.5" />
<path d="M14252.1 12720.5 A2362.2 2362.2 0.0 0 0 11889.9 10358.3" />
<path d="M11889 10358
L11198 10358
" />
<path d="M14252 12720
L14252 13066
" />
<path d="M8835 13066
L8835 12720
" />
<path d="M9921 16775
L13166 16775
" />
<path d="M9527 14736
L9527 16381
" />
<path d="M13560 16381
L13560 14736
" />
<path d="M9527.73 23862.2 A393.701 393.701 0.0 0 0 9921.43 24255.9" />
<path d="M13166.6 24255.9 A393.701 393.701 0.0 0 0 13560.3 23862.2" />
<path d="M13906.2 21381.9 A1181.1 1181.1 0.0 0 0 14252.1 20546.7" />
<path d="M13906.2 21381.9 A1181.1 1181.1 0.0 0 0 13560.3 22217.1" />
<path d="M9527.73 22217.1 A1181.1 1181.1 0.0 0 0 9181.8 21381.9" />
<path d="M8835.86 20546.7 A1181.1 1181.1 0.0 0 0 9181.8 21381.9" />
<path d="M11198.1 17838.6 A2362.2 2362.2 0.0 0 0 8835.86 20200.8" />
<path d="M14252.1 20200.8 A2362.2 2362.2 0.0 0 0 11889.9 17838.6" />
<path d="M11889 17838
L11198 17838
" />
<path d="M14252 20200
L14252 20546
" />
<path d="M8835 20546
L8835 20200
" />
<path d="M9921 24255
L13166 24255
" />
<path d="M9527 22217
L9527 23862
" />
<path d="M13560 23862
L13560 22217
" />
<path d="M9527.73 31342.5 A393.701 393.701 0.0 0 0 9921.43 31736.2" />
<path d="M13166.6 31736.2 A393.701 393.701 0.0 0 0 13560.3 31342.5" />
<path d="M13906.2 28862.2 A1181.1 1181.1 0.0 0 0 14252.1 28027" />
<path d="M13906.2 28862.2 A1181.1 1181.1 0.0 0 0 13560.3 29697.4" />
<path d="M9527.73 29697.4 A1181.1 1181.1 0.0 0 0 9181.8 28862.2" />
<path d="M8835.86 28027 A1181.1 1181.1 0.0 0 0 9181.8 28862.2" />
<path d="M11198.1 25318.9 A2362.2 2362.2 0.0 0 0 8835.86 27681.1" />
<path d="M14252.1 27681.1 A2362.2 2362.2 0.0 0 0 11889.9 25318.9" />
<path d="M11889 25318
L11198 25318
" />
<path d="M14252 27681
L14252 28027
" />
<path d="M8835 28027
L8835 27681
" />
<path d="M9921 31736
L13166 31736
" />
<path d="M9527 29697
L9527 31342
" />
<path d="M13560 31342
L13560 29697
" />
<path d="M17008 7720.47 A393.701 393.701 0.0 0 0 17401.7 8114.17" />
<path d="M20646.9 8114.17 A393.701 393.701 0.0 0 0 21040.6 7720.47" />
<path d="M21386.5 5240.16 A1181.1 1181.1 0.0 0 0 21732.5 4404.99" />
<path d="M21386.5 5240.16 A1181.1 1181.1 0.0 0 0 21040.6 6075.32" />
<path d="M17008 6075.32 A1181.1 1181.1 0.0 0 0 16662.1 5240.16" />
<path d="M16316.2 4404.99 A1181.1 1181.1 0.0 0 0 16662.1 5240.16" />
<path d="M18678.4 1696.85 A2362.2 2362.2 0.0 0 0 16316.2 4059.06" />
<path d="M21732.5 4059.06 A2362.2 2362.2 0.0 0 0 19370.3 1696.85" />
<path d="M19370 1696
L18678 1696
" />
<path d="M21732 4059
L21732 4404
" />
<path d="M16316 4404
L16316 4059
" />
<path d="M17401 8114
L20646 8114
" />
<path d="M17008 6075
L17008 7720
" />
<path d="M21040 7720
L21040 6075
" />
<path d="M17008 22681.1 A393.701 393.701 0.0 0 0 17401.7 23074.8" />
<path d="M20646.9 23074.8 A393.701 393.701 0.0 0 0 21040.6 22681.1" />
<path d="M21386.5 20200.8 A1181.1 1181.1 0.0 0 0 21732.5 19365.6" />
<path d="M21386.5 20200.8 A1181.1 1181.1 0.0 0 0 21040.6 21036" />
<path d="M17008 21036 A1181.1 1181.1 0.0 0 0 16662.1 20200.8" />
<path d="M16316.2 19365.6 A1181.1 1181.1 0.0 0 0 16662.1 20200.8" />
<path d="M18678.4 16657.5 A2362.2 2362.2 0.0 0 0 16316.2 19019.7" />
<path d="M21732.5 19019.7 A2362.2 2362.2 0.0 0 0 19370.3 16657.5" />
<path d="M19370 16657
L18678 16657
" />
<path d="M21732 19019
L21732 19365
" />
<path d="M16316 19365
L16316 19019
" />
<path d="M17401 23074
L20646 23074
" />
<path d="M17008 21035
L17008 22681
" />
<path d="M21040 22681
L21040 21035
" />
<path d="M17008 30161.4 A393.701 393.701 0.0 0 0 17401.7 30555.1" />
<path d="M20646.9 30555.1 A393.701 393.701 0.0 0 0 21040.6 30161.4" />
<path d="M21386.5 27681.1 A1181.1 1181.1 0.0 0 0 21732.5 26845.9" />
<path d="M21386.5 27681.1 A1181.1 1181.1 0.0 0 0 21040.6 28516.3" />
<path d="M17008 28516.3 A1181.1 1181.1 0.0 0 0 16662.1 27681.1" />
<path d="M16316.2 26845.9 A1181.1 1181.1 0.0 0 0 16662.1 27681.1" />
<path d="M18678.4 24137.8 A2362.2 2362.2 0.0 0 0 16316.2 26500" />
<path d="M21732.5 26500 A2362.2 2362.2 0.0 0 0 19370.3 24137.8" />
<path d="M19370 24137
L18678 24137
" />
<path d="M21732 26500
L21732 26845
" />
<path d="M16316 26845
L16316 26500
" />
<path d="M17401 30555
L20646 30555
" />
<path d="M17008 28516
L17008 30161
" />
<path d="M21040 30161
L21040 28516
" />
<path d="M24488.4 14413.4 A393.701 393.701 0.0 0 0 24882.1 14807.1" />
<path d="M28127.2 14807.1 A393.701 393.701 0.0 0 0 28520.9 14413.4" />
<path d="M28866.8 11933.1 A1181.1 1181.1 0.0 0 0 29212.8 11097.9" />
<path d="M28866.8 11933.1 A1181.1 1181.1 0.0 0 0 28520.9 12768.2" />
<path d="M24488.4 12768.2 A1181.1 1181.1 0.0 0 0 24142.4 11933.1" />
<path d="M23796.5 11097.9 A1181.1 1181.1 0.0 0 0 24142.4 11933.1" />
<path d="M26158.7 8389.76 A2362.2 2362.2 0.0 0 0 23796.5 10752" />
<path d="M29212.8 10752 A2362.2 2362.2 0.0 0 0 26850.6 8389.76" />
<path d="M26850 8389
L26158 8389
" />
<path d="M29212 10751
L29212 11097
" />
<path d="M23796 11097
L23796 10751
" />
<path d="M24882 14807
L28127 14807
" />
<path d="M24488 12768
L24488 14413
" />
<path d="M28520 14413
L28520 12768
" />
<path d="M24488.4 21893.7 A393.701 393.701 0.0 0 0 24882.1 22287.4" />
<path d="M28127.2 22287.4 A393.701 393.701 0.0 0 0 28520.9 21893.7" />
<path d="M28866.8 19413.4 A1181.1 1181.1 0.0 0 0 29212.8 18578.2" />
<path d="M28866.8 19413.4 A1181.1 1181.1 0.0 0 0 28520.9 20248.6" />
<path d="M24488.4 20248.6 A1181.1 1181.1 0.0 0 0 24142.4 19413.4" />
<path d="M23796.5 18578.2 A1181.1 1181.1 0.0 0 0 24142.4 19413.4" />
<path d="M26158.7 15870.1 A2362.2 2362.2 0.0 0 0 23796.5 18232.3" />
<path d="M29212.8 18232.3 A2362.2 2362.2 0.0 0 0 26850.6 15870.1" />
<path d="M26850 15870
L26158 15870
" />
<path d="M29212 18232
L29212 18578
" />
<path d="M23796 18578
L23796 18232
" />
<path d="M24882 22287
L28127 22287
" />
<path d="M24488 20248
L24488 21893
" />
<path d="M28520 21893
L28520 20248
" />
<path d="M24488.4 29374 A393.701 393.701 0.0 0 0 24882.1 29767.7" />
<path d="M28127.2 29767.7 A393.701 393.701 0.0 0 0 28520.9 29374" />
<path d="M28866.8 26893.7 A1181.1 1181.1 0.0 0 0 29212.8 26058.5" />
<path d="M28866.8 26893.7 A1181.1 1181.1 0.0 0 0 28520.9 27728.9" />
<path d="M24488.4 27728.9 A1181.1 1181.1 0.0 0 0 24142.4 26893.7" />
<path d="M23796.5 26058.5 A1181.1 1181.1 0.0 0 0 24142.4 26893.7" />
<path d="M26158.7 23350.4 A2362.2 2362.2 0.0 0 0 23796.5 25712.6" />
<path d="M29212.8 25712.6 A2362.2 2362.2 0.0 0 0 26850.6 23350.4" />
<path d="M26850 23350
L26158 23350
" />
<path d="M29212 25712
L29212 26058
" />
<path d="M23796 26058
L23796 25712
" />
<path d="M24882 29767
L28127 29767
" />
<path d="M24488 27728
L24488 29374
" />
<path d="M28520 29374
L28520 27728
" />
<path d="M31968.7 7720.47 A393.701 393.701 0.0 0 0 32362.4 8114.17" />
<path d="M35607.5 8114.17 A393.701 393.701 0.0 0 0 36001.2 7720.47" />
<path d="M36347.2 5240.16 A1181.1 1181.1 0.0 0 0 36693.1 4404.99" />
<path d="M36347.2 5240.16 A1181.1 1181.1 0.0 0 0 36001.2 6075.32" />
<path d="M31968.7 6075.32 A1181.1 1181.1 0.0 0 0 31622.7 5240.16" />
<path d="M31276.8 4404.99 A1181.1 1181.1 0.0 0 0 31622.7 5240.16" />
<path d="M33639 1696.85 A2362.2 2362.2 0.0 0 0 31276.8 4059.06" />
<path d="M36693.1 4059.06 A2362.2 2362.2 0.0 0 0 34330.9 1696.85" />
<path d="M34330 1696
L33639 1696
" />
<path d="M36693 4059
L36693 4404
" />
<path d="M31276 4404
L31276 4059
" />
<path d="M32362 8114
L35607 8114
" />
<path d="M31968 6075
L31968 7720
" />
<path d="M36001 7720
L36001 6075
" />
<path d="M31968.7 15200.8 A393.701 393.701 0.0 0 0 32362.4 15594.5" />
<path d="M35607.5 15594.5 A393.701 393.701 0.0 0 0 36001.2 15200.8" />
<path d="M36347.2 12720.5 A1181.1 1181.1 0.0 0 0 36693.1 11885.3" />
<path d="M36347.2 12720.5 A1181.1 1181.1 0.0 0 0 36001.2 13555.6" />
<path d="M31968.7 13555.6 A1181.1 1181.1 0.0 0 0 31622.7 12720.5" />
<path d="M31276.8 11885.3 A1181.1 1181.1 0.0 0 0 31622.7 12720.5" />
<path d="M33639 9177.17 A2362.2 2362.2 0.0 0 0 31276.8 11539.4" />
<path d="M36693.1 11539.4 A2362.2 2362.2 0.0 0 0 34330.9 9177.17" />
<path d="M34330 9177
L33639 9177
" />
<path d="M36693 11539
L36693 11885
" />
<path d="M31276 11885
L31276 11539
" />
<path d="M32362 15594
L35607 15594
" />
<path d="M31968 13555
L31968 15200
" />
<path d="M36001 15200
L36001 13555
" />
<path d="M31968.7 22681.1 A393.701 393.701 0.0 0 0 32362.4 23074.8" />
<path d="M35607.5 23074.8 A393.701 393.701 0.0 0 0 36001.2 22681.1" />
<path d="M36347.2 20200.8 A1181.1 1181.1 0.0 0 0 36693.1 19365.6" />
<path d="M36347.2 20200.8 A1181.1 1181.1 0.0 0 0 36001.2 21036" />
<path d="M31968.7 21036 A1181.1 1181.1 0.0 0 0 31622.7 20200.8" />
<path d="M31276.8 19365.6 A1181.1 1181.1 0.0 0 0 31622.7 20200.8" />
<path d="M33639 16657.5 A2362.2 2362.2 0.0 0 0 31276.8 19019.7" />
<path d="M36693.1 19019.7 A2362.2 2362.2 0.0 0 0 34330.9 16657.5" />
<path d="M34330 16657
L33639 16657
" />
<path d="M36693 19019
L36693 19365
" />
<path d="M31276 19365
L31276 19019
" />
<path d="M32362 23074
L35607 23074
" />
<path d="M31968 21035
L31968 22681
" />
<path d="M36001 22681
L36001 21035
" />
<path d="M31968.7 30161.4 A393.701 393.701 0.0 0 0 32362.4 30555.1" />
<path d="M35607.5 30555.1 A393.701 393.701 0.0 0 0 36001.2 30161.4" />
<path d="M36347.2 27681.1 A1181.1 1181.1 0.0 0 0 36693.1 26845.9" />
<path d="M36347.2 27681.1 A1181.1 1181.1 0.0 0 0 36001.2 28516.3" />
<path d="M31968.7 28516.3 A1181.1 1181.1 0.0 0 0 31622.7 27681.1" />
<path d="M31276.8 26845.9 A1181.1 1181.1 0.0 0 0 31622.7 27681.1" />
<path d="M33639 24137.8 A2362.2 2362.2 0.0 0 0 31276.8 26500" />
<path d="M36693.1 26500 A2362.2 2362.2 0.0 0 0 34330.9 24137.8" />
<path d="M34330 24137
L33639 24137
" />
<path d="M36693 26500
L36693 26845
" />
<path d="M31276 26845
L31276 26500
" />
<path d="M32362 30555
L35607 30555
" />
<path d="M31968 28516
L31968 30161
" />
<path d="M36001 30161
L36001 28516
" />
<path d="M39449 8507.87 A393.701 393.701 0.0 0 0 39842.7 8901.58" />
<path d="M43087.8 8901.58 A393.701 393.701 0.0 0 0 43481.5 8507.87" />
<path d="M43827.5 6027.56 A1181.1 1181.1 0.0 0 0 44173.4 5192.39" />
<path d="M43827.5 6027.56 A1181.1 1181.1 0.0 0 0 43481.5 6862.72" />
<path d="M39449 6862.72 A1181.1 1181.1 0.0 0 0 39103.1 6027.56" />
<path d="M38757.1 5192.39 A1181.1 1181.1 0.0 0 0 39103.1 6027.56" />
<path d="M41119.3 2484.25 A2362.2 2362.2 0.0 0 0 38757.1 4846.46" />
<path d="M44173.4 4846.46 A2362.2 2362.2 0.0 0 0 41811.2 2484.25" />
<path d="M41811 2484
L41119 2484
" />
<path d="M44173 4846
L44173 5192
" />
<path d="M38757 5192
L38757 4846
" />
<path d="M39842 8901
L43087 8901
" />
<path d="M39448 6862
L39448 8507
" />
<path d="M43481 8507
L43481 6862
" />
<path d="M39449 23468.5 A393.701 393.701 0.0 0 0 39842.7 23862.2" />
<path d="M43087.8 23862.2 A393.701 393.701 0.0 0 0 43481.5 23468.5" />
<path d="M43827.5 20988.2 A1181.1 1181.1 0.0 0 0 44173.4 20153" />
<path d="M43827.5 20988.2 A1181.1 1181.1 0.0 0 0 43481.5 21823.4" />
<path d="M39449 21823.4 A1181.1 1181.1 0.0 0 0 39103.1 20988.2" />
<path d="M38757.1 20153 A1181.1 1181.1 0.0 0 0 39103.1 20988.2" />
<path d="M41119.3 17444.9 A2362.2 2362.2 0.0 0 0 38757.1 19807.1" />
<path d="M44173.4 19807.1 A2362.2 2362.2 0.0 0 0 41811.2 17444.9" />
<path d="M41811 17444
L41119 17444
" />
<path d="M44173 19807
L44173 20153
" />
<path d="M38757 20153
L38757 19807
" />
<path d="M39842 23862
L43087 23862
" />
<path d="M39448 21823
L39448 23468
" />
<path d="M43481 23468
L43481 21823
" />
<path d="M39449 30948.8 A393.701 393.701 0.0 0 0 39842.7 31342.5" />
<path d="M43087.8 31342.5 A393.701 393.701 0.0 0 0 43481.5 30948.8" />
<path d="M43827.5 28468.5 A1181.1 1181.1 0.0 0 0 44173.4 27633.3" />
<path d="M43827.5 28468.5 A1181.1 1181.1 0.0 0 0 43481.5 29303.7" />
<path d="M39449 29303.7 A1181.1 1181.1 0.0 0 0 39103.1 28468.5" />
<path d="M38757.1 27633.3 A1181.1 1181.1 0.0 0 0 39103.1 28468.5" />
<path d="M41119.3 24925.2 A2362.2 2362.2 0.0 0 0 38757.1 27287.4" />
<path d="M44173.4 27287.4 A2362.2 2362.2 0.0 0 0 41811.2 24925.2" />
<path d="M41811 24925
L41119 24925
" />
<path d="M44173 27287
L44173 27633
" />
<path d="M38757 27633
L38757 27287
" />
<path d="M39842 31342
L43087 31342
" />
<path d="M39448 29303
L39448 30948
" />
<path d="M43481 30948
L43481 29303
" />
<path d="M46730.9 29887 A393.701 393.701 0.0 0 0 46730.9 30443.8" />
<path d="M49582.3 27592.4 A393.701 393.701 0.0 0 0 49025.5 27592.4" />
<path d="M52415.9 29447.6 A1181.1 1181.1 0.0 0 0 51580.8 29101.6" />
<path d="M50745.6 28755.7 A1181.1 1181.1 0.0 0 0 51580.8 29101.6" />
<path d="M48240.1 32442.3 A1181.1 1181.1 0.0 0 0 47894.2 31607.1" />
<path d="M48240.1 32442.3 A1181.1 1181.1 0.0 0 0 48586 33277.4" />
<path d="M48830.7 33522.1 A2362.2 2362.2 0.0 0 0 52171.3 33522.1" />
<path d="M52660.6 33032.8 A2362.2 2362.2 0.0 0 0 52660.6 29692.2" />
<path d="M52660 33032
L52171 33522
" />
<path d="M52660 29692
L52415 29447
" />
<path d="M48586 33277
L48830 33522
" />
<path d="M46730 29887
L49025 27592
" />
<path d="M47894 31607
L46730 30443
" />
<path d="M49582 27592
L50745 28755
" />
<path d="M52020.3 35176.4 A393.701 393.701 0.0 0 0 52020.3 35733.2" />
<path d="M54871.7 32881.8 A393.701 393.701 0.0 0 0 54314.9 32881.8" />
<path d="M57705.3 34736.9 A1181.1 1181.1 0.0 0 0 56870.2 34391" />
<path d="M56035 34045.1 A1181.1 1181.1 0.0 0 0 56870.2 34391" />
<path d="M53529.5 37731.7 A1181.1 1181.1 0.0 0 0 53183.6 36896.5" />
<path d="M53529.5 37731.7 A1181.1 1181.1 0.0 0 0 53875.4 38566.8" />
<path d="M54120 38811.4 A2362.2 2362.2 0.0 0 0 57460.7 38811.4" />
<path d="M57949.9 38322.2 A2362.2 2362.2 0.0 0 0 57949.9 34981.6" />
<path d="M57949 38322
L57460 38811
" />
<path d="M57949 34981
L57705 34736
" />
<path d="M53875 38566
L54120 38811
" />
<path d="M52020 35176
L54314 32881
" />
<path d="M53183 36896
L52020 35733
" />
<path d="M54871 32881
L56034 34045
" />
<circle cx="46307.8" cy="27681.1" r="610.236" /> 
<circle cx="37607" cy="9019.69" r="610.236" /> 
<circle cx="7882.58" cy="9964.57" r="610.236" /> 
<circle cx="15481" cy="23822.8" r="610.236" /> 
<g >
</g>
<g >
</g>
<g >
</g>
<g >
</g>
<g >
</g>
<g >
</g>
<g >
</g>
<g >
</g>
<g >
</g>
<g >
</g>
<g >
</g>
<g >
</g>
<g >
</g>
<g >
</g>
<g >
</g>
<g >
</g>
<g >
</g>
<g >
</g>
<g >
</g>
<g >
</g>
<g >
</g>
<g >
</g>
<g >
</g>
<g >
</g>
<g >
</g>
<g >
</g>
<g >
</g>
<g >
</g>
<g >
</g>
<g >
</g>
<g >
</g>
<g >
</g>
<g >
</g>
<g >
</g>
<g >
</g>
<g >
</g>
</g>
<g style="fill:#000000; fill-opacity:0.0; 
stroke:#000000; stroke-width:118.11; stroke-opacity:1; 
stroke-linecap:round; stroke-linejoin:round;">
</g>
<g style="fill:#C2C200; fill-opacity:0.0; 
stroke:#C2C200; stroke-width:118.11; stroke-opacity:1; 
stroke-linecap:round; stroke-linejoin:round;">
<path d="M50520 17444
L50520 25673
" />
<path d="M50520.4 25673.2 A393.701 393.701 0.0 0 0 50635.7 25951.6" />
<path d="M46189 16657
L49732 16657
" />
<path d="M45402 3271
L45402 15870
" />
<path d="M50520.4 17444.9 A787.402 787.402 0.0 0 0 49733 16657.5" />
<path d="M45402.3 15870.1 A787.402 787.402 0.0 0 0 46189.7 16657.5" />
<path d="M46979.9 31733.4 A393.701 393.701 0.0 0 0 46701.5 31618.1" />
<path d="M39496 31618
L46701 31618
" />
<path d="M50635 25951
L59932 35226
" />
<path d="M56313 39958
L59932 36339
" />
<path d="M59932.4 36339.7 A787.402 787.402 0.0 0 0 59932.4 35226.2" />
<path d="M46979 31733
L55199 39958
" />
<path d="M55199.8 39958.8 A787.402 787.402 0.0 0 0 56313.4 39958.8" />
<path d="M37134 2484
L44614 2484
" />
<path d="M45402.3 3271.65 A787.402 787.402 0.0 0 0 44614.9 2484.25" />
<path d="M29654 1696
L36347 1696
" />
<path d="M24142 909
L28866 909
" />
<path d="M32016 30830
L38709 30830
" />
<path d="M23355 30043
L31229 30043
" />
<path d="M39103.1 31224.4 A393.701 393.701 0.0 0 0 39496.8 31618.1" />
<path d="M31622.7 30437 A393.701 393.701 0.0 0 0 32016.4 30830.7" />
<path d="M39103.1 31224.4 A393.701 393.701 0.0 0 0 38709.4 30830.7" />
<path d="M31622.7 30437 A393.701 393.701 0.0 0 0 31229 30043.3" />
<path d="M36740.9 2090.55 A393.701 393.701 0.0 0 0 36347.2 1696.85" />
<path d="M36740.9 2090.55 A393.701 393.701 0.0 0 0 37134.6 2484.25" />
<path d="M29260.5 1303.15 A393.701 393.701 0.0 0 0 28866.8 909.449" />
<path d="M29260.5 1303.15 A393.701 393.701 0.0 0 0 29654.2 1696.85" />
<path d="M15874 30830
L22567 30830
" />
<path d="M15481 31618
L15481 31224
" />
<path d="M9575 32011
L15087 32011
" />
<path d="M8788 25318
L8788 31224
" />
<path d="M8788.1 31224.4 A787.402 787.402 0.0 0 0 9575.5 32011.8" />
<path d="M22567.6 30830.7 A393.701 393.701 0.0 0 0 22961.3 30437" />
<path d="M15087.3 32011.8 A393.701 393.701 0.0 0 0 15481 31618.1" />
<path d="M2095 24531
L8000 24531
" />
<path d="M1307 4846
L1307 23744
" />
<path d="M16662 1696
L23355 1696
" />
<path d="M16268 2484
L16268 2090
" />
<path d="M3276 2877
L15874 2877
" />
<path d="M23355 30043.3 A393.701 393.701 0.0 0 0 22961.3 30437" />
<path d="M15874.7 30830.7 A393.701 393.701 0.0 0 0 15481 31224.4" />
<path d="M24142.4 909.449 A393.701 393.701 0.0 0 0 23748.7 1303.15" />
<path d="M16662.1 1696.85 A393.701 393.701 0.0 0 0 16268.4 2090.55" />
<path d="M23355 1696.85 A393.701 393.701 0.0 0 0 23748.7 1303.15" />
<path d="M15874.7 2877.95 A393.701 393.701 0.0 0 0 16268.4 2484.25" />
<path d="M1307.78 23744.1 A787.402 787.402 0.0 0 0 2095.18 24531.5" />
<path d="M8788.1 25318.9 A787.402 787.402 0.0 0 0 8000.69 24531.5" />
<path d="M1307 4846
L1307 3665
" />
<path d="M2095.18 2877.95 A787.402 787.402 0.0 0 0 1307.78 3665.35" />
<path d="M2095 2877
L3276 2877
" />
<g >
</g>
<g >
</g>
<g >
</g>
<g >
</g>
<g >
</g>
<g >
</g>
<g >
</g>
<g >
</g>
<g >
</g>
<g >
</g>
<g >
</g>
<g >
</g>
<g >
</g>
<g >
</g>
<g >
</g>
<g >
</g>
<g >
</g>
<g >
</g>
<g >
</g>
<g >
</g>
<g >
</g>
<g >
</g>
<g >
</g>
<g >
</g>
<g >
</g>
<g >
</g>
<g >
</g>
<g >
</g>
<g >
</g>
<g >
</g>
<g >
</g>
<g >
</g>
<g >
</g>
<g >
</g>
<g >
</g>
<g >
</g>
</g> 
</svg>
