<?xml version="1.0" encoding="UTF-8" standalone="no"?>
<svg
   xmlns:dc="http://purl.org/dc/elements/1.1/"
   xmlns:cc="http://creativecommons.org/ns#"
   xmlns:rdf="http://www.w3.org/1999/02/22-rdf-syntax-ns#"
   xmlns:svg="http://www.w3.org/2000/svg"
   xmlns="http://www.w3.org/2000/svg"
   xmlns:sodipodi="http://sodipodi.sourceforge.net/DTD/sodipodi-0.dtd"
   xmlns:inkscape="http://www.inkscape.org/namespaces/inkscape"
   version="1.1"
   width="15.448280cm"
   height="10.469880cm"
   viewBox="0 0 60820 41220"
   id="svg1996"
   sodipodi:docname="hand-brd.svg"
   inkscape:version="1.0.2 (1.0.2+r75+1)">
  <metadata
     id="metadata2002">
    <rdf:RDF>
      <cc:Work
         rdf:about="">
        <dc:format>image/svg+xml</dc:format>
        <dc:type
           rdf:resource="http://purl.org/dc/dcmitype/StillImage" />
      </cc:Work>
    </rdf:RDF>
  </metadata>
  <defs
     id="defs2000" />
  <sodipodi:namedview
     pagecolor="#ffffff"
     bordercolor="#666666"
     borderopacity="1"
     objecttolerance="10"
     gridtolerance="10"
     guidetolerance="10"
     inkscape:pageopacity="0"
     inkscape:pageshadow="2"
     inkscape:window-width="1853"
     inkscape:window-height="1025"
     id="namedview1998"
     showgrid="false"
     inkscape:zoom="1.7942342"
     inkscape:cx="291.93601"
     inkscape:cy="197.856"
     inkscape:window-x="1987"
     inkscape:window-y="27"
     inkscape:window-maximized="1"
     inkscape:current-layer="svg1996" />
  <title
     id="title2">SVG Picture created as hand-brd.svg date 2023/03/12 18:48:13 </title>
  <desc
     id="desc4">Picture generated by PCBNEW </desc>
  <g
     id="g3822">
    <g
       style="fill:#000000; fill-opacity:1;stroke:#000000; stroke-opacity:1; stroke-linecap:round; stroke-linejoin:round;"
       transform="translate(0 0) scale(1 1)"
       id="g6" />
    <g
       style="fill:#000000; fill-opacity:0.0;  stroke:#000000; stroke-width:-0.000393701; stroke-opacity:1;  stroke-linecap:round; stroke-linejoin:round;"
       id="g8" />
    <g
       style="fill:#848484; fill-opacity:0.0;  stroke:#848484; stroke-width:-0.000393701; stroke-opacity:1;  stroke-linecap:round; stroke-linejoin:round;"
       id="g10" />
    <g
       style="fill:#848484; fill-opacity:0.0;  stroke:#848484; stroke-width:39.3701; stroke-opacity:1;  stroke-linecap:round; stroke-linejoin:round;"
       id="g54">
      <path
         d="M45984 24777 L45984 16561 "
         id="path12" />
      <path
         d="M45984 16561 L47759 16561 "
         id="path14" />
      <path
         d="M47759 16561 L47759 16157 "
         id="path16" />
      <path
         d="M47759 16157 L48110 16157 "
         id="path18" />
      <path
         d="M48110 16157 L48110 25181 "
         id="path20" />
      <path
         d="M48110 25181 L47759 25181 "
         id="path22" />
      <path
         d="M47759 25181 L47759 24777 "
         id="path24" />
      <path
         d="M47759 24777 L45984 24777 "
         id="path26" />
      <path
         d="M45984 23622 L46377 23425 "
         id="path28" />
      <path
         d="M46377 23425 L45984 23228 "
         id="path30" />
      <path
         d="M48110 16561 L48507 16561 "
         id="path32" />
      <path
         d="M48507 16561 L48507 16157 "
         id="path34" />
      <path
         d="M48507 16157 L48858 16157 "
         id="path36" />
      <path
         d="M48858 16157 L48858 25181 "
         id="path38" />
      <path
         d="M48858 25181 L48507 25181 "
         id="path40" />
      <path
         d="M48507 25181 L48507 24777 "
         id="path42" />
      <path
         d="M48507 24777 L48110 24777 "
         id="path44" />
      <path
         d="M44645 22869 L44645 23193 "
         id="path46" />
      <path
         d="M44645 23193 L44015 23193 "
         id="path48" />
      <path
         d="M44015 23193 L44015 22869 "
         id="path50" />
      <path
         d="M44015 22869 L44645 22869 "
         id="path52" />
    </g>
    <g
       style="fill:#848484; fill-opacity:0.0;  stroke:#848484; stroke-width:19.685; stroke-opacity:1;  stroke-linecap:round; stroke-linejoin:round;"
       id="g256">
      <path
         d="M40059 14755 L41909 14755 "
         id="path56" />
      <path
         d="M41909 15660 L41909 14755 "
         id="path58" />
      <path
         d="M40059 15660 L40059 14755 "
         id="path60" />
      <path
         d="M41909 15660 L40059 15660 "
         id="path62" />
      <path
         d="M25098 5700 L26948 5700 "
         id="path64" />
      <path
         d="M26948 6605 L26948 5700 "
         id="path66" />
      <path
         d="M25098 6605 L25098 5700 "
         id="path68" />
      <path
         d="M26948 6605 L25098 6605 "
         id="path70" />
      <path
         d="M17618 13967 L19468 13967 "
         id="path72" />
      <path
         d="M19468 14873 L19468 13967 "
         id="path74" />
      <path
         d="M17618 14873 L17618 13967 "
         id="path76" />
      <path
         d="M19468 14873 L17618 14873 "
         id="path78" />
      <path
         d="M2657 7668 L4507 7668 "
         id="path80" />
      <path
         d="M4507 8574 L4507 7668 "
         id="path82" />
      <path
         d="M2657 8574 L2657 7668 "
         id="path84" />
      <path
         d="M4507 8574 L2657 8574 "
         id="path86" />
      <path
         d="M2657 15148 L4507 15148 "
         id="path88" />
      <path
         d="M4507 16054 L4507 15148 "
         id="path90" />
      <path
         d="M2657 16054 L2657 15148 "
         id="path92" />
      <path
         d="M4507 16054 L2657 16054 "
         id="path94" />
      <path
         d="M2657 22629 L4507 22629 "
         id="path96" />
      <path
         d="M4507 23534 L4507 22629 "
         id="path98" />
      <path
         d="M2657 23534 L2657 22629 "
         id="path100" />
      <path
         d="M4507 23534 L2657 23534 "
         id="path102" />
      <path
         d="M10137 7668 L11988 7668 "
         id="path104" />
      <path
         d="M11988 8574 L11988 7668 "
         id="path106" />
      <path
         d="M10137 8574 L10137 7668 "
         id="path108" />
      <path
         d="M11988 8574 L10137 8574 "
         id="path110" />
      <path
         d="M10137 15148 L11988 15148 "
         id="path112" />
      <path
         d="M11988 16054 L11988 15148 "
         id="path114" />
      <path
         d="M10137 16054 L10137 15148 "
         id="path116" />
      <path
         d="M11988 16054 L10137 16054 "
         id="path118" />
      <path
         d="M10137 22629 L11988 22629 "
         id="path120" />
      <path
         d="M11988 23534 L11988 22629 "
         id="path122" />
      <path
         d="M10137 23534 L10137 22629 "
         id="path124" />
      <path
         d="M11988 23534 L10137 23534 "
         id="path126" />
      <path
         d="M10137 30109 L11988 30109 "
         id="path128" />
      <path
         d="M11988 31014 L11988 30109 "
         id="path130" />
      <path
         d="M10137 31014 L10137 30109 "
         id="path132" />
      <path
         d="M11988 31014 L10137 31014 "
         id="path134" />
      <path
         d="M17618 6487 L19468 6487 "
         id="path136" />
      <path
         d="M19468 7392 L19468 6487 "
         id="path138" />
      <path
         d="M17618 7392 L17618 6487 "
         id="path140" />
      <path
         d="M19468 7392 L17618 7392 "
         id="path142" />
      <path
         d="M17618 21448 L19468 21448 "
         id="path144" />
      <path
         d="M19468 22353 L19468 21448 "
         id="path146" />
      <path
         d="M17618 22353 L17618 21448 "
         id="path148" />
      <path
         d="M19468 22353 L17618 22353 "
         id="path150" />
      <path
         d="M17618 28928 L19468 28928 "
         id="path152" />
      <path
         d="M19468 29833 L19468 28928 "
         id="path154" />
      <path
         d="M17618 29833 L17618 28928 "
         id="path156" />
      <path
         d="M19468 29833 L17618 29833 "
         id="path158" />
      <path
         d="M25098 13180 L26948 13180 "
         id="path160" />
      <path
         d="M26948 14085 L26948 13180 "
         id="path162" />
      <path
         d="M25098 14085 L25098 13180 "
         id="path164" />
      <path
         d="M26948 14085 L25098 14085 "
         id="path166" />
      <path
         d="M25098 20660 L26948 20660 "
         id="path168" />
      <path
         d="M26948 21566 L26948 20660 "
         id="path170" />
      <path
         d="M25098 21566 L25098 20660 "
         id="path172" />
      <path
         d="M26948 21566 L25098 21566 "
         id="path174" />
      <path
         d="M25098 28140 L26948 28140 "
         id="path176" />
      <path
         d="M26948 29046 L26948 28140 "
         id="path178" />
      <path
         d="M25098 29046 L25098 28140 "
         id="path180" />
      <path
         d="M26948 29046 L25098 29046 "
         id="path182" />
      <path
         d="M32578 6487 L34429 6487 "
         id="path184" />
      <path
         d="M34429 7392 L34429 6487 "
         id="path186" />
      <path
         d="M32578 7392 L32578 6487 "
         id="path188" />
      <path
         d="M34429 7392 L32578 7392 "
         id="path190" />
      <path
         d="M32578 13967 L34429 13967 "
         id="path192" />
      <path
         d="M34429 14873 L34429 13967 "
         id="path194" />
      <path
         d="M32578 14873 L32578 13967 "
         id="path196" />
      <path
         d="M34429 14873 L32578 14873 "
         id="path198" />
      <path
         d="M32578 21448 L34429 21448 "
         id="path200" />
      <path
         d="M34429 22353 L34429 21448 "
         id="path202" />
      <path
         d="M32578 22353 L32578 21448 "
         id="path204" />
      <path
         d="M34429 22353 L32578 22353 "
         id="path206" />
      <path
         d="M32578 28928 L34429 28928 "
         id="path208" />
      <path
         d="M34429 29833 L34429 28928 "
         id="path210" />
      <path
         d="M32578 29833 L32578 28928 "
         id="path212" />
      <path
         d="M34429 29833 L32578 29833 "
         id="path214" />
      <path
         d="M40059 7274 L41909 7274 "
         id="path216" />
      <path
         d="M41909 8180 L41909 7274 "
         id="path218" />
      <path
         d="M40059 8180 L40059 7274 "
         id="path220" />
      <path
         d="M41909 8180 L40059 8180 "
         id="path222" />
      <path
         d="M40059 22235 L41909 22235 "
         id="path224" />
      <path
         d="M41909 23140 L41909 22235 "
         id="path226" />
      <path
         d="M40059 23140 L40059 22235 "
         id="path228" />
      <path
         d="M41909 23140 L40059 23140 "
         id="path230" />
      <path
         d="M40059 29715 L41909 29715 "
         id="path232" />
      <path
         d="M41909 30621 L41909 29715 "
         id="path234" />
      <path
         d="M40059 30621 L40059 29715 "
         id="path236" />
      <path
         d="M41909 30621 L40059 30621 "
         id="path238" />
      <path
         d="M46749 28687 L47389 29327 "
         id="path240" />
      <path
         d="M47389 29327 L48697 28019 "
         id="path242" />
      <path
         d="M48057 27379 L48697 28019 "
         id="path244" />
      <path
         d="M48057 27379 L46749 28687 "
         id="path246" />
      <path
         d="M52038 33976 L52678 34617 "
         id="path248" />
      <path
         d="M52678 34617 L53987 33308 "
         id="path250" />
      <path
         d="M53346 32668 L53987 33308 "
         id="path252" />
      <path
         d="M53346 32668 L52038 33976 "
         id="path254" />
    </g>
    <g
       style="fill:#848484; fill-opacity:0.0;  stroke:#848484; stroke-width:39.3701; stroke-opacity:1;  stroke-linecap:round; stroke-linejoin:round;"
       id="g338">
      <path
         d="M44015 23779 L44527 23779 "
         id="path258" />
      <path
         d="M44527 23779 L44645 23661 "
         id="path260" />
      <path
         d="M44645 23661 L44645 23464 "
         id="path262" />
      <path
         d="M44645 23464 L44015 23464 "
         id="path264" />
      <path
         d="M44015 23464 L44015 23779 "
         id="path266" />
      <g
         id="g268" />
      <g
         id="g270" />
      <g
         id="g272" />
      <g
         id="g274" />
      <g
         id="g276" />
      <g
         id="g278" />
      <g
         id="g280" />
      <g
         id="g282" />
      <g
         id="g284" />
      <g
         id="g286" />
      <g
         id="g288" />
      <g
         id="g290" />
      <g
         id="g292" />
      <g
         id="g294" />
      <g
         id="g296" />
      <g
         id="g298" />
      <g
         id="g300" />
      <g
         id="g302" />
      <g
         id="g304" />
      <g
         id="g306" />
      <g
         id="g308" />
      <g
         id="g310" />
      <g
         id="g312" />
      <g
         id="g314" />
      <g
         id="g316" />
      <g
         id="g318" />
      <g
         id="g320" />
      <g
         id="g322" />
      <g
         id="g324" />
      <g
         id="g326" />
      <g
         id="g328" />
      <g
         id="g330" />
      <g
         id="g332" />
      <g
         id="g334" />
      <g
         id="g336" />
    </g>
    <g
       style="fill:#848484; fill-opacity:0.0;  stroke:#848484; stroke-width:39.3701; stroke-opacity:1;  stroke-linecap:round; stroke-linejoin:round;"
       id="g340" />
    <g
       style="fill:#848484; fill-opacity:0.0;  stroke:#848484; stroke-width:59.0551; stroke-opacity:1;  stroke-linecap:round; stroke-linejoin:round;"
       id="g394">
      <g
         transform="rotate(-90 49330.7 20669.3)"
         id="g344">
        <text
           x="49330.7"
           y="20866.1"
           textLength="3611.51"
           font-size="524.934"
           lengthAdjust="spacingAndGlyphs"
           text-anchor="middle"
           opacity="0"
           id="text342">Conn_01x15</text>
      </g>
      <path
         d="M49471 22140 L49490 22159 L49508 22215 L49508 22253 L49490 22309 L49452 22347 L49415 22365 L49340 22384 L49283 22384 L49208 22365 L49171 22347 L49133 22309 L49115 22253 L49115 22215 L49133 22159 L49152 22140 "
         id="path346" />
      <path
         d="M49508 21916 L49490 21953 L49471 21972 L49433 21991 L49321 21991 L49283 21972 L49265 21953 L49246 21916 L49246 21859 L49265 21822 L49283 21803 L49321 21784 L49433 21784 L49471 21803 L49490 21822 L49508 21859 L49508 21916 "
         id="path348" />
      <path
         d="M49246 21616 L49508 21616 "
         id="path350" />
      <path
         d="M49283 21616 L49265 21597 L49246 21559 L49246 21503 L49265 21466 L49302 21447 L49508 21447 "
         id="path352" />
      <path
         d="M49246 21259 L49508 21259 "
         id="path354" />
      <path
         d="M49283 21259 L49265 21241 L49246 21203 L49246 21147 L49265 21109 L49302 21091 L49508 21091 "
         id="path356" />
      <path
         d="M49546 20997 L49546 20697 "
         id="path358" />
      <path
         d="M49115 20528 L49115 20491 L49133 20453 L49152 20434 L49190 20416 L49265 20397 L49358 20397 L49433 20416 L49471 20434 L49490 20453 L49508 20491 L49508 20528 L49490 20566 L49471 20584 L49433 20603 L49358 20622 L49265 20622 L49190 20603 L49152 20584 L49133 20566 L49115 20528 "
         id="path360" />
      <path
         d="M49508 20022 L49508 20247 "
         id="path362" />
      <path
         d="M49508 20134 L49115 20134 L49171 20172 L49208 20209 L49227 20247 "
         id="path364" />
      <path
         d="M49508 19891 L49246 19685 "
         id="path366" />
      <path
         d="M49246 19891 L49508 19685 "
         id="path368" />
      <path
         d="M49508 19328 L49508 19553 "
         id="path370" />
      <path
         d="M49508 19441 L49115 19441 L49171 19478 L49208 19516 L49227 19553 "
         id="path372" />
      <path
         d="M49115 18972 L49115 19160 L49302 19178 L49283 19160 L49265 19122 L49265 19028 L49283 18991 L49302 18972 L49340 18953 L49433 18953 L49471 18972 L49490 18991 L49508 19028 L49508 19122 L49490 19160 L49471 19178 "
         id="path374" />
      <g
         transform="rotate(-90 47047.2 20669.3)"
         id="g378">
        <text
           x="47047.2"
           y="20866.1"
           textLength="751.687"
           font-size="524.934"
           lengthAdjust="spacingAndGlyphs"
           text-anchor="middle"
           opacity="0"
           id="text376">J1</text>
      </g>
      <path
         d="M46831 20800 L47112 20800 L47169 20819 L47206 20856 L47225 20913 L47225 20950 "
         id="path380" />
      <path
         d="M47225 20406 L47225 20631 "
         id="path382" />
      <path
         d="M47225 20519 L46831 20519 L46887 20556 L46925 20594 L46944 20631 "
         id="path384" />
      <text
         x="44330.7"
         y="22665.4"
         textLength="1201.63"
         font-size="524.934"
         lengthAdjust="spacingAndGlyphs"
         text-anchor="middle"
         opacity="0"
         id="text386">220</text>
      <path
         d="M43843 22290 L43862 22271 L43899 22252 L43993 22252 L44030 22271 L44049 22290 L44068 22327 L44068 22365 L44049 22421 L43824 22646 L44068 22646 "
         id="path388" />
      <path
         d="M44218 22290 L44236 22271 L44274 22252 L44368 22252 L44405 22271 L44424 22290 L44443 22327 L44443 22365 L44424 22421 L44199 22646 L44443 22646 "
         id="path390" />
      <path
         d="M44686 22252 L44724 22252 L44761 22271 L44780 22290 L44799 22327 L44818 22402 L44818 22496 L44799 22571 L44780 22609 L44761 22627 L44724 22646 L44686 22646 L44649 22627 L44630 22609 L44611 22571 L44593 22496 L44593 22402 L44611 22327 L44630 22290 L44649 22271 L44686 22252 "
         id="path392" />
    </g>
    <g
       style="fill:#848484; fill-opacity:0.0;  stroke:#848484; stroke-width:23.622; stroke-opacity:1;  stroke-linecap:round; stroke-linejoin:round;"
       id="g406">
      <text
         x="44330.7"
         y="23110.2"
         textLength="384.233"
         font-size="209.974"
         lengthAdjust="spacingAndGlyphs"
         text-anchor="middle"
         opacity="0"
         id="text396">R1</text>
      <path
         d="M44304 23102 L44251 23027 "
         id="path398" />
      <path
         d="M44214 23102 L44214 22945 L44274 22945 L44289 22952 L44296 22960 L44304 22975 L44304 22997 L44296 23012 L44289 23020 L44274 23027 L44214 23027 "
         id="path400" />
      <path
         d="M44454 23102 L44364 23102 "
         id="path402" />
      <path
         d="M44409 23102 L44409 22945 L44394 22967 L44379 22982 L44364 22990 "
         id="path404" />
    </g>
    <g
       style="fill:#848484; fill-opacity:0.0;  stroke:#848484; stroke-width:59.0551; stroke-opacity:1;  stroke-linecap:round; stroke-linejoin:round;"
       id="g844">
      <text
         x="45826.8"
         y="28818.9"
         textLength="9985.71"
         font-size="524.934"
         lengthAdjust="spacingAndGlyphs"
         text-anchor="middle"
         opacity="0"
         id="text408">MountingHole_3.2mm_M3_Pad_Via</text>
      <path
         d="M40943 28800 L40943 28406 L41074 28687 L41205 28406 L41205 28800 "
         id="path410" />
      <path
         d="M41449 28800 L41411 28781 L41392 28762 L41374 28725 L41374 28612 L41392 28575 L41411 28556 L41449 28537 L41505 28537 L41542 28556 L41561 28575 L41580 28612 L41580 28725 L41561 28762 L41542 28781 L41505 28800 L41449 28800 "
         id="path412" />
      <path
         d="M41917 28537 L41917 28800 "
         id="path414" />
      <path
         d="M41749 28537 L41749 28743 L41767 28781 L41805 28800 L41861 28800 L41899 28781 L41917 28762 "
         id="path416" />
      <path
         d="M42105 28537 L42105 28800 "
         id="path418" />
      <path
         d="M42105 28575 L42124 28556 L42161 28537 L42217 28537 L42255 28556 L42274 28593 L42274 28800 "
         id="path420" />
      <path
         d="M42405 28537 L42555 28537 "
         id="path422" />
      <path
         d="M42461 28406 L42461 28743 L42480 28781 L42517 28800 L42555 28800 "
         id="path424" />
      <path
         d="M42686 28800 L42686 28537 "
         id="path426" />
      <path
         d="M42686 28406 L42667 28425 L42686 28443 L42705 28425 L42686 28406 L42686 28443 "
         id="path428" />
      <path
         d="M42874 28537 L42874 28800 "
         id="path430" />
      <path
         d="M42874 28575 L42892 28556 L42930 28537 L42986 28537 L43023 28556 L43042 28593 L43042 28800 "
         id="path432" />
      <path
         d="M43398 28537 L43398 28856 L43380 28893 L43361 28912 L43323 28931 L43267 28931 L43230 28912 "
         id="path434" />
      <path
         d="M43398 28781 L43361 28800 L43286 28800 L43248 28781 L43230 28762 L43211 28725 L43211 28612 L43230 28575 L43248 28556 L43286 28537 L43361 28537 L43398 28556 "
         id="path436" />
      <path
         d="M43586 28800 L43586 28406 "
         id="path438" />
      <path
         d="M43586 28593 L43811 28593 "
         id="path440" />
      <path
         d="M43811 28800 L43811 28406 "
         id="path442" />
      <path
         d="M44055 28800 L44017 28781 L43998 28762 L43980 28725 L43980 28612 L43998 28575 L44017 28556 L44055 28537 L44111 28537 L44148 28556 L44167 28575 L44186 28612 L44186 28725 L44167 28762 L44148 28781 L44111 28800 L44055 28800 "
         id="path444" />
      <path
         d="M44411 28800 L44373 28781 L44355 28743 L44355 28406 "
         id="path446" />
      <path
         d="M44711 28781 L44673 28800 L44598 28800 L44561 28781 L44542 28743 L44542 28593 L44561 28556 L44598 28537 L44673 28537 L44711 28556 L44730 28593 L44730 28631 L44542 28668 "
         id="path448" />
      <path
         d="M44805 28837 L45104 28837 "
         id="path450" />
      <path
         d="M45161 28406 L45404 28406 L45273 28556 L45329 28556 L45367 28575 L45386 28593 L45404 28631 L45404 28725 L45386 28762 L45367 28781 L45329 28800 L45217 28800 L45179 28781 L45161 28762 "
         id="path452" />
      <path
         d="M45573 28762 L45592 28781 L45573 28800 L45554 28781 L45573 28762 L45573 28800 "
         id="path454" />
      <path
         d="M45742 28443 L45761 28425 L45798 28406 L45892 28406 L45929 28425 L45948 28443 L45967 28481 L45967 28518 L45948 28575 L45723 28800 L45967 28800 "
         id="path456" />
      <path
         d="M46136 28800 L46136 28537 "
         id="path458" />
      <path
         d="M46136 28575 L46154 28556 L46192 28537 L46248 28537 L46286 28556 L46304 28593 L46304 28800 "
         id="path460" />
      <path
         d="M46304 28593 L46323 28556 L46361 28537 L46417 28537 L46454 28556 L46473 28593 L46473 28800 "
         id="path462" />
      <path
         d="M46661 28800 L46661 28537 "
         id="path464" />
      <path
         d="M46661 28575 L46679 28556 L46717 28537 L46773 28537 L46811 28556 L46829 28593 L46829 28800 "
         id="path466" />
      <path
         d="M46829 28593 L46848 28556 L46886 28537 L46942 28537 L46979 28556 L46998 28593 L46998 28800 "
         id="path468" />
      <path
         d="M47092 28837 L47392 28837 "
         id="path470" />
      <path
         d="M47485 28800 L47485 28406 L47617 28687 L47748 28406 L47748 28800 "
         id="path472" />
      <path
         d="M47898 28406 L48142 28406 L48010 28556 L48067 28556 L48104 28575 L48123 28593 L48142 28631 L48142 28725 L48123 28762 L48104 28781 L48067 28800 L47954 28800 L47917 28781 L47898 28762 "
         id="path474" />
      <path
         d="M48217 28837 L48517 28837 "
         id="path476" />
      <path
         d="M48610 28800 L48610 28406 L48760 28406 L48798 28425 L48817 28443 L48835 28481 L48835 28537 L48817 28575 L48798 28593 L48760 28612 L48610 28612 "
         id="path478" />
      <path
         d="M49173 28800 L49173 28593 L49154 28556 L49116 28537 L49041 28537 L49004 28556 "
         id="path480" />
      <path
         d="M49173 28781 L49135 28800 L49041 28800 L49004 28781 L48985 28743 L48985 28706 L49004 28668 L49041 28650 L49135 28650 L49173 28631 "
         id="path482" />
      <path
         d="M49529 28800 L49529 28406 "
         id="path484" />
      <path
         d="M49529 28781 L49491 28800 L49416 28800 L49379 28781 L49360 28762 L49341 28725 L49341 28612 L49360 28575 L49379 28556 L49416 28537 L49491 28537 L49529 28556 "
         id="path486" />
      <path
         d="M49623 28837 L49923 28837 "
         id="path488" />
      <path
         d="M49960 28406 L50091 28800 L50223 28406 "
         id="path490" />
      <path
         d="M50354 28800 L50354 28537 "
         id="path492" />
      <path
         d="M50354 28406 L50335 28425 L50354 28443 L50373 28425 L50354 28406 L50354 28443 "
         id="path494" />
      <path
         d="M50710 28800 L50710 28593 L50691 28556 L50654 28537 L50579 28537 L50541 28556 "
         id="path496" />
      <path
         d="M50710 28781 L50673 28800 L50579 28800 L50541 28781 L50523 28743 L50523 28706 L50541 28668 L50579 28650 L50673 28650 L50710 28631 "
         id="path498" />
      <text
         x="45944.9"
         y="27165.4"
         textLength="864.173"
         font-size="524.934"
         lengthAdjust="spacingAndGlyphs"
         text-anchor="middle"
         opacity="0"
         id="text500">H4</text>
      <path
         d="M45644 27146 L45644 26752 "
         id="path502" />
      <path
         d="M45644 26940 L45869 26940 "
         id="path504" />
      <path
         d="M45869 27146 L45869 26752 "
         id="path506" />
      <path
         d="M46226 26884 L46226 27146 "
         id="path508" />
      <path
         d="M46132 26734 L46038 27015 L46282 27015 "
         id="path510" />
      <text
         x="37126"
         y="10157.5"
         textLength="10031.8"
         font-size="524.934"
         lengthAdjust="spacingAndGlyphs"
         text-anchor="middle"
         opacity="0"
         id="text512">MountingHole_3.2mm_M3_Pad_Via</text>
      <path
         d="M32242 10138 L32242 9745 L32373 10026 L32504 9745 L32504 10138 "
         id="path514" />
      <path
         d="M32748 10138 L32710 10119 L32692 10101 L32673 10063 L32673 9951 L32692 9913 L32710 9895 L32748 9876 L32804 9876 L32842 9895 L32860 9913 L32879 9951 L32879 10063 L32860 10101 L32842 10119 L32804 10138 L32748 10138 "
         id="path516" />
      <path
         d="M33217 9876 L33217 10138 "
         id="path518" />
      <path
         d="M33048 9876 L33048 10082 L33067 10119 L33104 10138 L33160 10138 L33198 10119 L33217 10101 "
         id="path520" />
      <path
         d="M33404 9876 L33404 10138 "
         id="path522" />
      <path
         d="M33404 9913 L33423 9895 L33460 9876 L33517 9876 L33554 9895 L33573 9932 L33573 10138 "
         id="path524" />
      <path
         d="M33704 9876 L33854 9876 "
         id="path526" />
      <path
         d="M33760 9745 L33760 10082 L33779 10119 L33817 10138 L33854 10138 "
         id="path528" />
      <path
         d="M33985 10138 L33985 9876 "
         id="path530" />
      <path
         d="M33985 9745 L33967 9763 L33985 9782 L34004 9763 L33985 9745 L33985 9782 "
         id="path532" />
      <path
         d="M34173 9876 L34173 10138 "
         id="path534" />
      <path
         d="M34173 9913 L34191 9895 L34229 9876 L34285 9876 L34323 9895 L34341 9932 L34341 10138 "
         id="path536" />
      <path
         d="M34698 9876 L34698 10194 L34679 10232 L34660 10251 L34623 10269 L34566 10269 L34529 10251 "
         id="path538" />
      <path
         d="M34698 10119 L34660 10138 L34585 10138 L34548 10119 L34529 10101 L34510 10063 L34510 9951 L34529 9913 L34548 9895 L34585 9876 L34660 9876 L34698 9895 "
         id="path540" />
      <path
         d="M34885 10138 L34885 9745 "
         id="path542" />
      <path
         d="M34885 9932 L35110 9932 "
         id="path544" />
      <path
         d="M35110 10138 L35110 9745 "
         id="path546" />
      <path
         d="M35354 10138 L35316 10119 L35298 10101 L35279 10063 L35279 9951 L35298 9913 L35316 9895 L35354 9876 L35410 9876 L35448 9895 L35466 9913 L35485 9951 L35485 10063 L35466 10101 L35448 10119 L35410 10138 L35354 10138 "
         id="path548" />
      <path
         d="M35710 10138 L35673 10119 L35654 10082 L35654 9745 "
         id="path550" />
      <path
         d="M36010 10119 L35973 10138 L35898 10138 L35860 10119 L35841 10082 L35841 9932 L35860 9895 L35898 9876 L35973 9876 L36010 9895 L36029 9932 L36029 9970 L35841 10007 "
         id="path552" />
      <path
         d="M36104 10176 L36404 10176 "
         id="path554" />
      <path
         d="M36460 9745 L36704 9745 L36572 9895 L36629 9895 L36666 9913 L36685 9932 L36704 9970 L36704 10063 L36685 10101 L36666 10119 L36629 10138 L36516 10138 L36479 10119 L36460 10101 "
         id="path556" />
      <path
         d="M36872 10101 L36891 10119 L36872 10138 L36854 10119 L36872 10101 L36872 10138 "
         id="path558" />
      <path
         d="M37041 9782 L37060 9763 L37097 9745 L37191 9745 L37229 9763 L37247 9782 L37266 9820 L37266 9857 L37247 9913 L37022 10138 L37266 10138 "
         id="path560" />
      <path
         d="M37435 10138 L37435 9876 "
         id="path562" />
      <path
         d="M37435 9913 L37454 9895 L37491 9876 L37547 9876 L37585 9895 L37604 9932 L37604 10138 "
         id="path564" />
      <path
         d="M37604 9932 L37622 9895 L37660 9876 L37716 9876 L37754 9895 L37772 9932 L37772 10138 "
         id="path566" />
      <path
         d="M37960 10138 L37960 9876 "
         id="path568" />
      <path
         d="M37960 9913 L37979 9895 L38016 9876 L38072 9876 L38110 9895 L38128 9932 L38128 10138 "
         id="path570" />
      <path
         d="M38128 9932 L38147 9895 L38185 9876 L38241 9876 L38278 9895 L38297 9932 L38297 10138 "
         id="path572" />
      <path
         d="M38391 10176 L38691 10176 "
         id="path574" />
      <path
         d="M38785 10138 L38785 9745 L38916 10026 L39047 9745 L39047 10138 "
         id="path576" />
      <path
         d="M39197 9745 L39441 9745 L39310 9895 L39366 9895 L39403 9913 L39422 9932 L39441 9970 L39441 10063 L39422 10101 L39403 10119 L39366 10138 L39253 10138 L39216 10119 L39197 10101 "
         id="path578" />
      <path
         d="M39516 10176 L39816 10176 "
         id="path580" />
      <path
         d="M39910 10138 L39910 9745 L40059 9745 L40097 9763 L40116 9782 L40134 9820 L40134 9876 L40116 9913 L40097 9932 L40059 9951 L39910 9951 "
         id="path582" />
      <path
         d="M40472 10138 L40472 9932 L40453 9895 L40416 9876 L40341 9876 L40303 9895 "
         id="path584" />
      <path
         d="M40472 10119 L40434 10138 L40341 10138 L40303 10119 L40284 10082 L40284 10044 L40303 10007 L40341 9988 L40434 9988 L40472 9970 "
         id="path586" />
      <path
         d="M40828 10138 L40828 9745 "
         id="path588" />
      <path
         d="M40828 10119 L40791 10138 L40716 10138 L40678 10119 L40659 10101 L40641 10063 L40641 9951 L40659 9913 L40678 9895 L40716 9876 L40791 9876 L40828 9895 "
         id="path590" />
      <path
         d="M40922 10176 L41222 10176 "
         id="path592" />
      <path
         d="M41259 9745 L41391 10138 L41522 9745 "
         id="path594" />
      <path
         d="M41653 10138 L41653 9876 "
         id="path596" />
      <path
         d="M41653 9745 L41634 9763 L41653 9782 L41672 9763 L41653 9745 L41653 9782 "
         id="path598" />
      <path
         d="M42009 10138 L42009 9932 L41991 9895 L41953 9876 L41878 9876 L41841 9895 "
         id="path600" />
      <path
         d="M42009 10119 L41972 10138 L41878 10138 L41841 10119 L41822 10082 L41822 10044 L41841 10007 L41878 9988 L41972 9988 L42009 9970 "
         id="path602" />
      <text
         x="37244.1"
         y="8503.94"
         textLength="864.173"
         font-size="524.934"
         lengthAdjust="spacingAndGlyphs"
         text-anchor="middle"
         opacity="0"
         id="text604">H3</text>
      <path
         d="M36944 8485 L36944 8091 "
         id="path606" />
      <path
         d="M36944 8278 L37169 8278 "
         id="path608" />
      <path
         d="M37169 8485 L37169 8091 "
         id="path610" />
      <path
         d="M37319 8091 L37562 8091 L37431 8241 L37487 8241 L37525 8260 L37544 8278 L37562 8316 L37562 8410 L37544 8447 L37525 8466 L37487 8485 L37375 8485 L37337 8466 L37319 8447 "
         id="path612" />
      <text
         x="7401.57"
         y="11102.4"
         textLength="10031.8"
         font-size="524.934"
         lengthAdjust="spacingAndGlyphs"
         text-anchor="middle"
         opacity="0"
         id="text614">MountingHole_3.2mm_M3_Pad_Via</text>
      <path
         d="M2517 11083 L2517 10689 L2649 10971 L2780 10689 L2780 11083 "
         id="path616" />
      <path
         d="M3023 11083 L2986 11064 L2967 11046 L2949 11008 L2949 10896 L2967 10858 L2986 10839 L3023 10821 L3080 10821 L3117 10839 L3136 10858 L3155 10896 L3155 11008 L3136 11046 L3117 11064 L3080 11083 L3023 11083 "
         id="path618" />
      <path
         d="M3492 10821 L3492 11083 "
         id="path620" />
      <path
         d="M3323 10821 L3323 11027 L3342 11064 L3380 11083 L3436 11083 L3473 11064 L3492 11046 "
         id="path622" />
      <path
         d="M3680 10821 L3680 11083 "
         id="path624" />
      <path
         d="M3680 10858 L3698 10839 L3736 10821 L3792 10821 L3830 10839 L3848 10877 L3848 11083 "
         id="path626" />
      <path
         d="M3980 10821 L4130 10821 "
         id="path628" />
      <path
         d="M4036 10689 L4036 11027 L4055 11064 L4092 11083 L4130 11083 "
         id="path630" />
      <path
         d="M4261 11083 L4261 10821 "
         id="path632" />
      <path
         d="M4261 10689 L4242 10708 L4261 10727 L4280 10708 L4261 10689 L4261 10727 "
         id="path634" />
      <path
         d="M4448 10821 L4448 11083 "
         id="path636" />
      <path
         d="M4448 10858 L4467 10839 L4505 10821 L4561 10821 L4598 10839 L4617 10877 L4617 11083 "
         id="path638" />
      <path
         d="M4973 10821 L4973 11139 L4955 11177 L4936 11196 L4898 11214 L4842 11214 L4805 11196 "
         id="path640" />
      <path
         d="M4973 11064 L4936 11083 L4861 11083 L4823 11064 L4805 11046 L4786 11008 L4786 10896 L4805 10858 L4823 10839 L4861 10821 L4936 10821 L4973 10839 "
         id="path642" />
      <path
         d="M5161 11083 L5161 10689 "
         id="path644" />
      <path
         d="M5161 10877 L5386 10877 "
         id="path646" />
      <path
         d="M5386 11083 L5386 10689 "
         id="path648" />
      <path
         d="M5629 11083 L5592 11064 L5573 11046 L5554 11008 L5554 10896 L5573 10858 L5592 10839 L5629 10821 L5686 10821 L5723 10839 L5742 10858 L5761 10896 L5761 11008 L5742 11046 L5723 11064 L5686 11083 L5629 11083 "
         id="path650" />
      <path
         d="M5986 11083 L5948 11064 L5929 11027 L5929 10689 "
         id="path652" />
      <path
         d="M6286 11064 L6248 11083 L6173 11083 L6136 11064 L6117 11027 L6117 10877 L6136 10839 L6173 10821 L6248 10821 L6286 10839 L6304 10877 L6304 10914 L6117 10952 "
         id="path654" />
      <path
         d="M6379 11121 L6679 11121 "
         id="path656" />
      <path
         d="M6736 10689 L6979 10689 L6848 10839 L6904 10839 L6942 10858 L6961 10877 L6979 10914 L6979 11008 L6961 11046 L6942 11064 L6904 11083 L6792 11083 L6754 11064 L6736 11046 "
         id="path658" />
      <path
         d="M7148 11046 L7167 11064 L7148 11083 L7129 11064 L7148 11046 L7148 11083 "
         id="path660" />
      <path
         d="M7317 10727 L7335 10708 L7373 10689 L7467 10689 L7504 10708 L7523 10727 L7542 10764 L7542 10802 L7523 10858 L7298 11083 L7542 11083 "
         id="path662" />
      <path
         d="M7710 11083 L7710 10821 "
         id="path664" />
      <path
         d="M7710 10858 L7729 10839 L7767 10821 L7823 10821 L7860 10839 L7879 10877 L7879 11083 "
         id="path666" />
      <path
         d="M7879 10877 L7898 10839 L7935 10821 L7992 10821 L8029 10839 L8048 10877 L8048 11083 "
         id="path668" />
      <path
         d="M8235 11083 L8235 10821 "
         id="path670" />
      <path
         d="M8235 10858 L8254 10839 L8292 10821 L8348 10821 L8385 10839 L8404 10877 L8404 11083 "
         id="path672" />
      <path
         d="M8404 10877 L8423 10839 L8460 10821 L8517 10821 L8554 10839 L8573 10877 L8573 11083 "
         id="path674" />
      <path
         d="M8667 11121 L8967 11121 "
         id="path676" />
      <path
         d="M9060 11083 L9060 10689 L9191 10971 L9323 10689 L9323 11083 "
         id="path678" />
      <path
         d="M9473 10689 L9716 10689 L9585 10839 L9641 10839 L9679 10858 L9698 10877 L9716 10914 L9716 11008 L9698 11046 L9679 11064 L9641 11083 L9529 11083 L9491 11064 L9473 11046 "
         id="path680" />
      <path
         d="M9791 11121 L10091 11121 "
         id="path682" />
      <path
         d="M10185 11083 L10185 10689 L10335 10689 L10373 10708 L10391 10727 L10410 10764 L10410 10821 L10391 10858 L10373 10877 L10335 10896 L10185 10896 "
         id="path684" />
      <path
         d="M10748 11083 L10748 10877 L10729 10839 L10691 10821 L10616 10821 L10579 10839 "
         id="path686" />
      <path
         d="M10748 11064 L10710 11083 L10616 11083 L10579 11064 L10560 11027 L10560 10989 L10579 10952 L10616 10933 L10710 10933 L10748 10914 "
         id="path688" />
      <path
         d="M11104 11083 L11104 10689 "
         id="path690" />
      <path
         d="M11104 11064 L11066 11083 L10991 11083 L10954 11064 L10935 11046 L10916 11008 L10916 10896 L10935 10858 L10954 10839 L10991 10821 L11066 10821 L11104 10839 "
         id="path692" />
      <path
         d="M11197 11121 L11497 11121 "
         id="path694" />
      <path
         d="M11535 10689 L11666 11083 L11797 10689 "
         id="path696" />
      <path
         d="M11929 11083 L11929 10821 "
         id="path698" />
      <path
         d="M11929 10689 L11910 10708 L11929 10727 L11947 10708 L11929 10689 L11929 10727 "
         id="path700" />
      <path
         d="M12285 11083 L12285 10877 L12266 10839 L12229 10821 L12154 10821 L12116 10839 "
         id="path702" />
      <path
         d="M12285 11064 L12247 11083 L12154 11083 L12116 11064 L12097 11027 L12097 10989 L12116 10952 L12154 10933 L12247 10933 L12285 10914 "
         id="path704" />
      <text
         x="7519.69"
         y="9448.82"
         textLength="864.173"
         font-size="524.934"
         lengthAdjust="spacingAndGlyphs"
         text-anchor="middle"
         opacity="0"
         id="text706">H1</text>
      <path
         d="M7219 9430 L7219 9036 "
         id="path708" />
      <path
         d="M7219 9223 L7444 9223 "
         id="path710" />
      <path
         d="M7444 9430 L7444 9036 "
         id="path712" />
      <path
         d="M7838 9430 L7613 9430 "
         id="path714" />
      <path
         d="M7725 9430 L7725 9036 L7688 9092 L7650 9130 L7613 9148 "
         id="path716" />
      <text
         x="15000"
         y="24960.6"
         textLength="10031.8"
         font-size="524.934"
         lengthAdjust="spacingAndGlyphs"
         text-anchor="middle"
         opacity="0"
         id="text718">MountingHole_3.2mm_M3_Pad_Via</text>
      <path
         d="M10116 24941 L10116 24548 L10247 24829 L10378 24548 L10378 24941 "
         id="path720" />
      <path
         d="M10622 24941 L10584 24923 L10566 24904 L10547 24866 L10547 24754 L10566 24716 L10584 24698 L10622 24679 L10678 24679 L10716 24698 L10734 24716 L10753 24754 L10753 24866 L10734 24904 L10716 24923 L10678 24941 L10622 24941 "
         id="path722" />
      <path
         d="M11091 24679 L11091 24941 "
         id="path724" />
      <path
         d="M10922 24679 L10922 24885 L10941 24923 L10978 24941 L11034 24941 L11072 24923 L11091 24904 "
         id="path726" />
      <path
         d="M11278 24679 L11278 24941 "
         id="path728" />
      <path
         d="M11278 24716 L11297 24698 L11334 24679 L11391 24679 L11428 24698 L11447 24735 L11447 24941 "
         id="path730" />
      <path
         d="M11578 24679 L11728 24679 "
         id="path732" />
      <path
         d="M11634 24548 L11634 24885 L11653 24923 L11691 24941 L11728 24941 "
         id="path734" />
      <path
         d="M11859 24941 L11859 24679 "
         id="path736" />
      <path
         d="M11859 24548 L11841 24566 L11859 24585 L11878 24566 L11859 24548 L11859 24585 "
         id="path738" />
      <path
         d="M12047 24679 L12047 24941 "
         id="path740" />
      <path
         d="M12047 24716 L12065 24698 L12103 24679 L12159 24679 L12197 24698 L12215 24735 L12215 24941 "
         id="path742" />
      <path
         d="M12572 24679 L12572 24998 L12553 25035 L12534 25054 L12497 25073 L12440 25073 L12403 25054 "
         id="path744" />
      <path
         d="M12572 24923 L12534 24941 L12459 24941 L12422 24923 L12403 24904 L12384 24866 L12384 24754 L12403 24716 L12422 24698 L12459 24679 L12534 24679 L12572 24698 "
         id="path746" />
      <path
         d="M12759 24941 L12759 24548 "
         id="path748" />
      <path
         d="M12759 24735 L12984 24735 "
         id="path750" />
      <path
         d="M12984 24941 L12984 24548 "
         id="path752" />
      <path
         d="M13228 24941 L13190 24923 L13172 24904 L13153 24866 L13153 24754 L13172 24716 L13190 24698 L13228 24679 L13284 24679 L13322 24698 L13340 24716 L13359 24754 L13359 24866 L13340 24904 L13322 24923 L13284 24941 L13228 24941 "
         id="path754" />
      <path
         d="M13584 24941 L13547 24923 L13528 24885 L13528 24548 "
         id="path756" />
      <path
         d="M13884 24923 L13847 24941 L13772 24941 L13734 24923 L13715 24885 L13715 24735 L13734 24698 L13772 24679 L13847 24679 L13884 24698 L13903 24735 L13903 24773 L13715 24810 "
         id="path758" />
      <path
         d="M13978 24979 L14278 24979 "
         id="path760" />
      <path
         d="M14334 24548 L14578 24548 L14446 24698 L14503 24698 L14540 24716 L14559 24735 L14578 24773 L14578 24866 L14559 24904 L14540 24923 L14503 24941 L14390 24941 L14353 24923 L14334 24904 "
         id="path762" />
      <path
         d="M14746 24904 L14765 24923 L14746 24941 L14728 24923 L14746 24904 L14746 24941 "
         id="path764" />
      <path
         d="M14915 24585 L14934 24566 L14971 24548 L15065 24548 L15103 24566 L15121 24585 L15140 24623 L15140 24660 L15121 24716 L14896 24941 L15140 24941 "
         id="path766" />
      <path
         d="M15309 24941 L15309 24679 "
         id="path768" />
      <path
         d="M15309 24716 L15328 24698 L15365 24679 L15421 24679 L15459 24698 L15478 24735 L15478 24941 "
         id="path770" />
      <path
         d="M15478 24735 L15496 24698 L15534 24679 L15590 24679 L15628 24698 L15646 24735 L15646 24941 "
         id="path772" />
      <path
         d="M15834 24941 L15834 24679 "
         id="path774" />
      <path
         d="M15834 24716 L15853 24698 L15890 24679 L15946 24679 L15984 24698 L16002 24735 L16002 24941 "
         id="path776" />
      <path
         d="M16002 24735 L16021 24698 L16059 24679 L16115 24679 L16152 24698 L16171 24735 L16171 24941 "
         id="path778" />
      <path
         d="M16265 24979 L16565 24979 "
         id="path780" />
      <path
         d="M16659 24941 L16659 24548 L16790 24829 L16921 24548 L16921 24941 "
         id="path782" />
      <path
         d="M17071 24548 L17315 24548 L17184 24698 L17240 24698 L17277 24716 L17296 24735 L17315 24773 L17315 24866 L17296 24904 L17277 24923 L17240 24941 L17127 24941 L17090 24923 L17071 24904 "
         id="path784" />
      <path
         d="M17390 24979 L17690 24979 "
         id="path786" />
      <path
         d="M17784 24941 L17784 24548 L17934 24548 L17971 24566 L17990 24585 L18008 24623 L18008 24679 L17990 24716 L17971 24735 L17934 24754 L17784 24754 "
         id="path788" />
      <path
         d="M18346 24941 L18346 24735 L18327 24698 L18290 24679 L18215 24679 L18177 24698 "
         id="path790" />
      <path
         d="M18346 24923 L18308 24941 L18215 24941 L18177 24923 L18158 24885 L18158 24848 L18177 24810 L18215 24791 L18308 24791 L18346 24773 "
         id="path792" />
      <path
         d="M18702 24941 L18702 24548 "
         id="path794" />
      <path
         d="M18702 24923 L18665 24941 L18590 24941 L18552 24923 L18533 24904 L18515 24866 L18515 24754 L18533 24716 L18552 24698 L18590 24679 L18665 24679 L18702 24698 "
         id="path796" />
      <path
         d="M18796 24979 L19096 24979 "
         id="path798" />
      <path
         d="M19133 24548 L19265 24941 L19396 24548 "
         id="path800" />
      <path
         d="M19527 24941 L19527 24679 "
         id="path802" />
      <path
         d="M19527 24548 L19508 24566 L19527 24585 L19546 24566 L19527 24548 L19527 24585 "
         id="path804" />
      <path
         d="M19883 24941 L19883 24735 L19865 24698 L19827 24679 L19752 24679 L19715 24698 "
         id="path806" />
      <path
         d="M19883 24923 L19846 24941 L19752 24941 L19715 24923 L19696 24885 L19696 24848 L19715 24810 L19752 24791 L19846 24791 L19883 24773 "
         id="path808" />
      <text
         x="15118.1"
         y="23307.1"
         textLength="864.173"
         font-size="524.934"
         lengthAdjust="spacingAndGlyphs"
         text-anchor="middle"
         opacity="0"
         id="text810">H2</text>
      <path
         d="M14818 23288 L14818 22894 "
         id="path812" />
      <path
         d="M14818 23082 L15043 23082 "
         id="path814" />
      <path
         d="M15043 23288 L15043 22894 "
         id="path816" />
      <path
         d="M15211 22932 L15230 22913 L15268 22894 L15361 22894 L15399 22913 L15418 22932 L15436 22969 L15436 23007 L15418 23063 L15193 23288 L15436 23288 "
         id="path818" />
      <text
         x="44330.7"
         y="24381.9"
         textLength="1520.34"
         font-size="524.934"
         lengthAdjust="spacingAndGlyphs"
         text-anchor="middle"
         opacity="0"
         id="text820">LED1</text>
      <path
         d="M43890 24363 L43702 24363 L43702 23969 "
         id="path822" />
      <path
         d="M44021 24156 L44152 24156 "
         id="path824" />
      <path
         d="M44208 24363 L44021 24363 L44021 23969 L44208 23969 "
         id="path826" />
      <path
         d="M44377 24363 L44377 23969 L44471 23969 L44527 23988 L44565 24025 L44583 24063 L44602 24138 L44602 24194 L44583 24269 L44565 24306 L44527 24344 L44471 24363 L44377 24363 "
         id="path828" />
      <path
         d="M44977 24363 L44752 24363 "
         id="path830" />
      <path
         d="M44865 24363 L44865 23969 L44827 24025 L44790 24063 L44752 24081 "
         id="path832" />
      <text
         x="44330.7"
         y="23255.9"
         textLength="1145.39"
         font-size="524.934"
         lengthAdjust="spacingAndGlyphs"
         text-anchor="middle"
         opacity="0"
         id="text834">LED</text>
      <path
         d="M44077 23237 L43890 23237 L43890 22843 "
         id="path836" />
      <path
         d="M44208 23030 L44340 23030 "
         id="path838" />
      <path
         d="M44396 23237 L44208 23237 L44208 22843 L44396 22843 "
         id="path840" />
      <path
         d="M44565 23237 L44565 22843 L44658 22843 L44715 22862 L44752 22899 L44771 22937 L44790 23012 L44790 23068 L44771 23143 L44752 23180 L44715 23218 L44658 23237 L44565 23237 "
         id="path842" />
    </g>
    <g
       style="fill:#848484; fill-opacity:0.0;  stroke:#848484; stroke-width:23.622; stroke-opacity:1;  stroke-linecap:round; stroke-linejoin:round;"
       id="g862">
      <text
         x="44330.7"
         y="23700.8"
         textLength="654.2"
         font-size="209.974"
         lengthAdjust="spacingAndGlyphs"
         text-anchor="middle"
         opacity="0"
         id="text846">LED1</text>
      <path
         d="M44154 23693 L44079 23693 L44079 23535 "
         id="path848" />
      <path
         d="M44206 23610 L44259 23610 "
         id="path850" />
      <path
         d="M44281 23693 L44206 23693 L44206 23535 L44281 23535 "
         id="path852" />
      <path
         d="M44349 23693 L44349 23535 L44386 23535 L44409 23543 L44424 23558 L44431 23573 L44439 23603 L44439 23625 L44431 23655 L44424 23670 L44409 23685 L44386 23693 L44349 23693 "
         id="path854" />
      <path
         d="M44589 23693 L44499 23693 "
         id="path856" />
      <path
         d="M44544 23693 L44544 23535 L44529 23558 L44514 23573 L44499 23580 "
         id="path858" />
      <g
         id="g860" />
    </g>
    <g
       style="fill:#000000; fill-opacity:0.0;  stroke:#000000; stroke-width:23.622; stroke-opacity:1;  stroke-linecap:round; stroke-linejoin:round;"
       id="g864" />
    <g
       style="fill:#C2C200; fill-opacity:0.0;  stroke:#C2C200; stroke-width:23.622; stroke-opacity:1;  stroke-linecap:round; stroke-linejoin:round;"
       id="g866" />
    <g
       style="fill:#C2C200; fill-opacity:0.0;  stroke:#C2C200; stroke-width:118.11; stroke-opacity:1;  stroke-linecap:round; stroke-linejoin:round;"
       id="g1680">
      <path
         d="M56929 17913 L56929 23425 "
         id="path868" />
      <path
         d="M54960.6 25393.7 A1968.5 1968.5 0.0 0 0 56929.1 23425.2"
         id="path870" />
      <path
         d="M56929.1 17913.4 A1968.5 1968.5 0.0 0 0 54960.6 15944.9"
         id="path872" />
      <path
         d="M45708 15944 L54960 15944 "
         id="path874" />
      <path
         d="M45708.7 15944.9 A787.402 787.402 0.0 0 0 44921.3 16732.3"
         id="path876" />
      <path
         d="M44527.6 22637.8 A393.701 393.701 0.0 0 0 44921.3 22244.1"
         id="path878" />
      <path
         d="M45118 24409 L45118 24606 "
         id="path880" />
      <path
         d="M43937 22637.8 A393.701 393.701 0.0 0 0 43543.3 23031.5"
         id="path882" />
      <path
         d="M43543.3 23622 A393.701 393.701 0.0 0 0 43937 24015.7"
         id="path884" />
      <path
         d="M45118.1 24409.4 A393.701 393.701 0.0 0 0 44724.4 24015.7"
         id="path886" />
      <path
         d="M45118.1 24606.3 A787.402 787.402 0.0 0 0 45905.5 25393.7"
         id="path888" />
      <path
         d="M43937 24015 L44724 24015 "
         id="path890" />
      <path
         d="M44921 22244 L44921 16732 "
         id="path892" />
      <path
         d="M43937 22637 L44527 22637 "
         id="path894" />
      <path
         d="M43543 23622 L43543 23031 "
         id="path896" />
      <path
         d="M54960 25393 L45905 25393 "
         id="path898" />
      <path
         d="M41330 9251 L40638 9251 "
         id="path900" />
      <path
         d="M43692 11614 L43692 11960 "
         id="path902" />
      <path
         d="M38276 11960 L38276 11614 "
         id="path904" />
      <path
         d="M39361 15669 L42606 15669 "
         id="path906" />
      <path
         d="M38967 13630 L38967 15275 "
         id="path908" />
      <path
         d="M43000 15275 L43000 13630 "
         id="path910" />
      <path
         d="M38968 15275.6 A393.701 393.701 0.0 0 0 39361.7 15669.3"
         id="path912" />
      <path
         d="M42606.8 15669.3 A393.701 393.701 0.0 0 0 43000.5 15275.6"
         id="path914" />
      <path
         d="M43346.5 12795.3 A1181.1 1181.1 0.0 0 0 43692.4 11960.1"
         id="path916" />
      <path
         d="M43346.5 12795.3 A1181.1 1181.1 0.0 0 0 43000.5 13630.4"
         id="path918" />
      <path
         d="M38968 13630.4 A1181.1 1181.1 0.0 0 0 38622 12795.3"
         id="path920" />
      <path
         d="M38276.1 11960.1 A1181.1 1181.1 0.0 0 0 38622 12795.3"
         id="path922" />
      <path
         d="M40638.3 9251.97 A2362.2 2362.2 0.0 0 0 38276.1 11614.2"
         id="path924" />
      <path
         d="M43692.4 11614.2 A2362.2 2362.2 0.0 0 0 41330.2 9251.97"
         id="path926" />
      <path
         d="M26369 196 L25677 196 "
         id="path928" />
      <path
         d="M28731 2559 L28731 2904 "
         id="path930" />
      <path
         d="M23315 2904 L23315 2559 "
         id="path932" />
      <path
         d="M24401 6614 L27646 6614 "
         id="path934" />
      <path
         d="M24007 4575 L24007 6220 "
         id="path936" />
      <path
         d="M28039 6220 L28039 4575 "
         id="path938" />
      <path
         d="M24007.4 6220.47 A393.701 393.701 0.0 0 0 24401.1 6614.17"
         id="path940" />
      <path
         d="M27646.2 6614.17 A393.701 393.701 0.0 0 0 28039.9 6220.47"
         id="path942" />
      <path
         d="M28385.8 3740.16 A1181.1 1181.1 0.0 0 0 28731.8 2904.99"
         id="path944" />
      <path
         d="M28385.8 3740.16 A1181.1 1181.1 0.0 0 0 28039.9 4575.32"
         id="path946" />
      <path
         d="M24007.4 4575.32 A1181.1 1181.1 0.0 0 0 23661.4 3740.16"
         id="path948" />
      <path
         d="M23315.5 2904.99 A1181.1 1181.1 0.0 0 0 23661.4 3740.16"
         id="path950" />
      <path
         d="M25677.7 196.85 A2362.2 2362.2 0.0 0 0 23315.5 2559.06"
         id="path952" />
      <path
         d="M28731.8 2559.06 A2362.2 2362.2 0.0 0 0 26369.6 196.85"
         id="path954" />
      <path
         d="M18889 8464 L18197 8464 "
         id="path956" />
      <path
         d="M21251 10826 L21251 11172 "
         id="path958" />
      <path
         d="M15835 11172 L15835 10826 "
         id="path960" />
      <path
         d="M16920 14881 L20165 14881 "
         id="path962" />
      <path
         d="M16527 12843 L16527 14488 "
         id="path964" />
      <path
         d="M20559 14488 L20559 12843 "
         id="path966" />
      <path
         d="M16527 14488.2 A393.701 393.701 0.0 0 0 16920.7 14881.9"
         id="path968" />
      <path
         d="M20165.9 14881.9 A393.701 393.701 0.0 0 0 20559.6 14488.2"
         id="path970" />
      <path
         d="M20905.5 12007.9 A1181.1 1181.1 0.0 0 0 21251.4 11172.7"
         id="path972" />
      <path
         d="M20905.5 12007.9 A1181.1 1181.1 0.0 0 0 20559.6 12843"
         id="path974" />
      <path
         d="M16527 12843 A1181.1 1181.1 0.0 0 0 16181.1 12007.9"
         id="path976" />
      <path
         d="M15835.2 11172.7 A1181.1 1181.1 0.0 0 0 16181.1 12007.9"
         id="path978" />
      <path
         d="M18197.4 8464.57 A2362.2 2362.2 0.0 0 0 15835.2 10826.8"
         id="path980" />
      <path
         d="M21251.4 10826.8 A2362.2 2362.2 0.0 0 0 18889.2 8464.57"
         id="path982" />
      <path
         d="M3928 2165 L3236 2165 "
         id="path984" />
      <path
         d="M6290 4527 L6290 4873 "
         id="path986" />
      <path
         d="M874 4873 L874 4527 "
         id="path988" />
      <path
         d="M1960 8582 L5205 8582 "
         id="path990" />
      <path
         d="M1566 6543 L1566 8188 "
         id="path992" />
      <path
         d="M5598 8188 L5598 6543 "
         id="path994" />
      <path
         d="M1566.41 8188.98 A393.701 393.701 0.0 0 0 1960.11 8582.68"
         id="path996" />
      <path
         d="M5205.24 8582.68 A393.701 393.701 0.0 0 0 5598.94 8188.98"
         id="path998" />
      <path
         d="M5944.88 5708.66 A1181.1 1181.1 0.0 0 0 6290.82 4873.5"
         id="path1000" />
      <path
         d="M5944.88 5708.66 A1181.1 1181.1 0.0 0 0 5598.94 6543.83"
         id="path1002" />
      <path
         d="M1566.41 6543.83 A1181.1 1181.1 0.0 0 0 1220.47 5708.66"
         id="path1004" />
      <path
         d="M874.535 4873.5 A1181.1 1181.1 0.0 0 0 1220.47 5708.66"
         id="path1006" />
      <path
         d="M3236.74 2165.35 A2362.2 2362.2 0.0 0 0 874.535 4527.56"
         id="path1008" />
      <path
         d="M6290.82 4527.56 A2362.2 2362.2 0.0 0 0 3928.61 2165.35"
         id="path1010" />
      <path
         d="M3928 9645 L3236 9645 "
         id="path1012" />
      <path
         d="M6290 12007 L6290 12353 "
         id="path1014" />
      <path
         d="M874 12353 L874 12007 "
         id="path1016" />
      <path
         d="M1960 16062 L5205 16062 "
         id="path1018" />
      <path
         d="M1566 14024 L1566 15669 "
         id="path1020" />
      <path
         d="M5598 15669 L5598 14024 "
         id="path1022" />
      <path
         d="M1566.41 15669.3 A393.701 393.701 0.0 0 0 1960.11 16063"
         id="path1024" />
      <path
         d="M5205.24 16063 A393.701 393.701 0.0 0 0 5598.94 15669.3"
         id="path1026" />
      <path
         d="M5944.88 13189 A1181.1 1181.1 0.0 0 0 6290.82 12353.8"
         id="path1028" />
      <path
         d="M5944.88 13189 A1181.1 1181.1 0.0 0 0 5598.94 14024.1"
         id="path1030" />
      <path
         d="M1566.41 14024.1 A1181.1 1181.1 0.0 0 0 1220.47 13189"
         id="path1032" />
      <path
         d="M874.535 12353.8 A1181.1 1181.1 0.0 0 0 1220.47 13189"
         id="path1034" />
      <path
         d="M3236.74 9645.67 A2362.2 2362.2 0.0 0 0 874.535 12007.9"
         id="path1036" />
      <path
         d="M6290.82 12007.9 A2362.2 2362.2 0.0 0 0 3928.61 9645.67"
         id="path1038" />
      <path
         d="M3928 17125 L3236 17125 "
         id="path1040" />
      <path
         d="M6290 19488 L6290 19834 "
         id="path1042" />
      <path
         d="M874 19834 L874 19488 "
         id="path1044" />
      <path
         d="M1960 23543 L5205 23543 "
         id="path1046" />
      <path
         d="M1566 21504 L1566 23149 "
         id="path1048" />
      <path
         d="M5598 23149 L5598 21504 "
         id="path1050" />
      <path
         d="M1566.41 23149.6 A393.701 393.701 0.0 0 0 1960.11 23543.3"
         id="path1052" />
      <path
         d="M5205.24 23543.3 A393.701 393.701 0.0 0 0 5598.94 23149.6"
         id="path1054" />
      <path
         d="M5944.88 20669.3 A1181.1 1181.1 0.0 0 0 6290.82 19834.1"
         id="path1056" />
      <path
         d="M5944.88 20669.3 A1181.1 1181.1 0.0 0 0 5598.94 21504.5"
         id="path1058" />
      <path
         d="M1566.41 21504.5 A1181.1 1181.1 0.0 0 0 1220.47 20669.3"
         id="path1060" />
      <path
         d="M874.535 19834.1 A1181.1 1181.1 0.0 0 0 1220.47 20669.3"
         id="path1062" />
      <path
         d="M3236.74 17126 A2362.2 2362.2 0.0 0 0 874.535 19488.2"
         id="path1064" />
      <path
         d="M6290.82 19488.2 A2362.2 2362.2 0.0 0 0 3928.61 17126"
         id="path1066" />
      <path
         d="M11408 2165 L10717 2165 "
         id="path1068" />
      <path
         d="M13771 4527 L13771 4873 "
         id="path1070" />
      <path
         d="M8354 4873 L8354 4527 "
         id="path1072" />
      <path
         d="M9440 8582 L12685 8582 "
         id="path1074" />
      <path
         d="M9046 6543 L9046 8188 "
         id="path1076" />
      <path
         d="M13079 8188 L13079 6543 "
         id="path1078" />
      <path
         d="M9046.72 8188.98 A393.701 393.701 0.0 0 0 9440.43 8582.68"
         id="path1080" />
      <path
         d="M12685.6 8582.68 A393.701 393.701 0.0 0 0 13079.3 8188.98"
         id="path1082" />
      <path
         d="M13425.2 5708.66 A1181.1 1181.1 0.0 0 0 13771.1 4873.5"
         id="path1084" />
      <path
         d="M13425.2 5708.66 A1181.1 1181.1 0.0 0 0 13079.3 6543.83"
         id="path1086" />
      <path
         d="M9046.72 6543.83 A1181.1 1181.1 0.0 0 0 8700.79 5708.66"
         id="path1088" />
      <path
         d="M8354.85 4873.5 A1181.1 1181.1 0.0 0 0 8700.79 5708.66"
         id="path1090" />
      <path
         d="M10717.1 2165.35 A2362.2 2362.2 0.0 0 0 8354.85 4527.56"
         id="path1092" />
      <path
         d="M13771.1 4527.56 A2362.2 2362.2 0.0 0 0 11408.9 2165.35"
         id="path1094" />
      <path
         d="M11408 9645 L10717 9645 "
         id="path1096" />
      <path
         d="M13771 12007 L13771 12353 "
         id="path1098" />
      <path
         d="M8354 12353 L8354 12007 "
         id="path1100" />
      <path
         d="M9440 16062 L12685 16062 "
         id="path1102" />
      <path
         d="M9046 14024 L9046 15669 "
         id="path1104" />
      <path
         d="M13079 15669 L13079 14024 "
         id="path1106" />
      <path
         d="M9046.72 15669.3 A393.701 393.701 0.0 0 0 9440.43 16063"
         id="path1108" />
      <path
         d="M12685.6 16063 A393.701 393.701 0.0 0 0 13079.3 15669.3"
         id="path1110" />
      <path
         d="M13425.2 13189 A1181.1 1181.1 0.0 0 0 13771.1 12353.8"
         id="path1112" />
      <path
         d="M13425.2 13189 A1181.1 1181.1 0.0 0 0 13079.3 14024.1"
         id="path1114" />
      <path
         d="M9046.72 14024.1 A1181.1 1181.1 0.0 0 0 8700.79 13189"
         id="path1116" />
      <path
         d="M8354.85 12353.8 A1181.1 1181.1 0.0 0 0 8700.79 13189"
         id="path1118" />
      <path
         d="M10717.1 9645.67 A2362.2 2362.2 0.0 0 0 8354.85 12007.9"
         id="path1120" />
      <path
         d="M13771.1 12007.9 A2362.2 2362.2 0.0 0 0 11408.9 9645.67"
         id="path1122" />
      <path
         d="M11408 17125 L10717 17125 "
         id="path1124" />
      <path
         d="M13771 19488 L13771 19834 "
         id="path1126" />
      <path
         d="M8354 19834 L8354 19488 "
         id="path1128" />
      <path
         d="M9440 23543 L12685 23543 "
         id="path1130" />
      <path
         d="M9046 21504 L9046 23149 "
         id="path1132" />
      <path
         d="M13079 23149 L13079 21504 "
         id="path1134" />
      <path
         d="M9046.72 23149.6 A393.701 393.701 0.0 0 0 9440.43 23543.3"
         id="path1136" />
      <path
         d="M12685.6 23543.3 A393.701 393.701 0.0 0 0 13079.3 23149.6"
         id="path1138" />
      <path
         d="M13425.2 20669.3 A1181.1 1181.1 0.0 0 0 13771.1 19834.1"
         id="path1140" />
      <path
         d="M13425.2 20669.3 A1181.1 1181.1 0.0 0 0 13079.3 21504.5"
         id="path1142" />
      <path
         d="M9046.72 21504.5 A1181.1 1181.1 0.0 0 0 8700.79 20669.3"
         id="path1144" />
      <path
         d="M8354.85 19834.1 A1181.1 1181.1 0.0 0 0 8700.79 20669.3"
         id="path1146" />
      <path
         d="M10717.1 17126 A2362.2 2362.2 0.0 0 0 8354.85 19488.2"
         id="path1148" />
      <path
         d="M13771.1 19488.2 A2362.2 2362.2 0.0 0 0 11408.9 17126"
         id="path1150" />
      <path
         d="M11408 24606 L10717 24606 "
         id="path1152" />
      <path
         d="M13771 26968 L13771 27314 "
         id="path1154" />
      <path
         d="M8354 27314 L8354 26968 "
         id="path1156" />
      <path
         d="M9440 31023 L12685 31023 "
         id="path1158" />
      <path
         d="M9046 28984 L9046 30629 "
         id="path1160" />
      <path
         d="M13079 30629 L13079 28984 "
         id="path1162" />
      <path
         d="M9046.72 30629.9 A393.701 393.701 0.0 0 0 9440.43 31023.6"
         id="path1164" />
      <path
         d="M12685.6 31023.6 A393.701 393.701 0.0 0 0 13079.3 30629.9"
         id="path1166" />
      <path
         d="M13425.2 28149.6 A1181.1 1181.1 0.0 0 0 13771.1 27314.4"
         id="path1168" />
      <path
         d="M13425.2 28149.6 A1181.1 1181.1 0.0 0 0 13079.3 28984.8"
         id="path1170" />
      <path
         d="M9046.72 28984.8 A1181.1 1181.1 0.0 0 0 8700.79 28149.6"
         id="path1172" />
      <path
         d="M8354.85 27314.4 A1181.1 1181.1 0.0 0 0 8700.79 28149.6"
         id="path1174" />
      <path
         d="M10717.1 24606.3 A2362.2 2362.2 0.0 0 0 8354.85 26968.5"
         id="path1176" />
      <path
         d="M13771.1 26968.5 A2362.2 2362.2 0.0 0 0 11408.9 24606.3"
         id="path1178" />
      <path
         d="M18889 984 L18197 984 "
         id="path1180" />
      <path
         d="M21251 3346 L21251 3692 "
         id="path1182" />
      <path
         d="M15835 3692 L15835 3346 "
         id="path1184" />
      <path
         d="M16920 7401 L20165 7401 "
         id="path1186" />
      <path
         d="M16527 5362 L16527 7007 "
         id="path1188" />
      <path
         d="M20559 7007 L20559 5362 "
         id="path1190" />
      <path
         d="M16527 7007.87 A393.701 393.701 0.0 0 0 16920.7 7401.57"
         id="path1192" />
      <path
         d="M20165.9 7401.57 A393.701 393.701 0.0 0 0 20559.6 7007.87"
         id="path1194" />
      <path
         d="M20905.5 4527.56 A1181.1 1181.1 0.0 0 0 21251.4 3692.39"
         id="path1196" />
      <path
         d="M20905.5 4527.56 A1181.1 1181.1 0.0 0 0 20559.6 5362.72"
         id="path1198" />
      <path
         d="M16527 5362.72 A1181.1 1181.1 0.0 0 0 16181.1 4527.56"
         id="path1200" />
      <path
         d="M15835.2 3692.39 A1181.1 1181.1 0.0 0 0 16181.1 4527.56"
         id="path1202" />
      <path
         d="M18197.4 984.252 A2362.2 2362.2 0.0 0 0 15835.2 3346.46"
         id="path1204" />
      <path
         d="M21251.4 3346.46 A2362.2 2362.2 0.0 0 0 18889.2 984.252"
         id="path1206" />
      <path
         d="M18889 15944 L18197 15944 "
         id="path1208" />
      <path
         d="M21251 18307 L21251 18653 "
         id="path1210" />
      <path
         d="M15835 18653 L15835 18307 "
         id="path1212" />
      <path
         d="M16920 22362 L20165 22362 "
         id="path1214" />
      <path
         d="M16527 20323 L16527 21968 "
         id="path1216" />
      <path
         d="M20559 21968 L20559 20323 "
         id="path1218" />
      <path
         d="M16527 21968.5 A393.701 393.701 0.0 0 0 16920.7 22362.2"
         id="path1220" />
      <path
         d="M20165.9 22362.2 A393.701 393.701 0.0 0 0 20559.6 21968.5"
         id="path1222" />
      <path
         d="M20905.5 19488.2 A1181.1 1181.1 0.0 0 0 21251.4 18653"
         id="path1224" />
      <path
         d="M20905.5 19488.2 A1181.1 1181.1 0.0 0 0 20559.6 20323.4"
         id="path1226" />
      <path
         d="M16527 20323.4 A1181.1 1181.1 0.0 0 0 16181.1 19488.2"
         id="path1228" />
      <path
         d="M15835.2 18653 A1181.1 1181.1 0.0 0 0 16181.1 19488.2"
         id="path1230" />
      <path
         d="M18197.4 15944.9 A2362.2 2362.2 0.0 0 0 15835.2 18307.1"
         id="path1232" />
      <path
         d="M21251.4 18307.1 A2362.2 2362.2 0.0 0 0 18889.2 15944.9"
         id="path1234" />
      <path
         d="M18889 23425 L18197 23425 "
         id="path1236" />
      <path
         d="M21251 25787 L21251 26133 "
         id="path1238" />
      <path
         d="M15835 26133 L15835 25787 "
         id="path1240" />
      <path
         d="M16920 29842 L20165 29842 "
         id="path1242" />
      <path
         d="M16527 27803 L16527 29448 "
         id="path1244" />
      <path
         d="M20559 29448 L20559 27803 "
         id="path1246" />
      <path
         d="M16527 29448.8 A393.701 393.701 0.0 0 0 16920.7 29842.5"
         id="path1248" />
      <path
         d="M20165.9 29842.5 A393.701 393.701 0.0 0 0 20559.6 29448.8"
         id="path1250" />
      <path
         d="M20905.5 26968.5 A1181.1 1181.1 0.0 0 0 21251.4 26133.3"
         id="path1252" />
      <path
         d="M20905.5 26968.5 A1181.1 1181.1 0.0 0 0 20559.6 27803.7"
         id="path1254" />
      <path
         d="M16527 27803.7 A1181.1 1181.1 0.0 0 0 16181.1 26968.5"
         id="path1256" />
      <path
         d="M15835.2 26133.3 A1181.1 1181.1 0.0 0 0 16181.1 26968.5"
         id="path1258" />
      <path
         d="M18197.4 23425.2 A2362.2 2362.2 0.0 0 0 15835.2 25787.4"
         id="path1260" />
      <path
         d="M21251.4 25787.4 A2362.2 2362.2 0.0 0 0 18889.2 23425.2"
         id="path1262" />
      <path
         d="M26369 7677 L25677 7677 "
         id="path1264" />
      <path
         d="M28731 10039 L28731 10385 "
         id="path1266" />
      <path
         d="M23315 10385 L23315 10039 "
         id="path1268" />
      <path
         d="M24401 14094 L27646 14094 "
         id="path1270" />
      <path
         d="M24007 12055 L24007 13700 "
         id="path1272" />
      <path
         d="M28039 13700 L28039 12055 "
         id="path1274" />
      <path
         d="M24007.4 13700.8 A393.701 393.701 0.0 0 0 24401.1 14094.5"
         id="path1276" />
      <path
         d="M27646.2 14094.5 A393.701 393.701 0.0 0 0 28039.9 13700.8"
         id="path1278" />
      <path
         d="M28385.8 11220.5 A1181.1 1181.1 0.0 0 0 28731.8 10385.3"
         id="path1280" />
      <path
         d="M28385.8 11220.5 A1181.1 1181.1 0.0 0 0 28039.9 12055.6"
         id="path1282" />
      <path
         d="M24007.4 12055.6 A1181.1 1181.1 0.0 0 0 23661.4 11220.5"
         id="path1284" />
      <path
         d="M23315.5 10385.3 A1181.1 1181.1 0.0 0 0 23661.4 11220.5"
         id="path1286" />
      <path
         d="M25677.7 7677.17 A2362.2 2362.2 0.0 0 0 23315.5 10039.4"
         id="path1288" />
      <path
         d="M28731.8 10039.4 A2362.2 2362.2 0.0 0 0 26369.6 7677.17"
         id="path1290" />
      <path
         d="M26369 15157 L25677 15157 "
         id="path1292" />
      <path
         d="M28731 17519 L28731 17865 "
         id="path1294" />
      <path
         d="M23315 17865 L23315 17519 "
         id="path1296" />
      <path
         d="M24401 21574 L27646 21574 "
         id="path1298" />
      <path
         d="M24007 19535 L24007 21181 "
         id="path1300" />
      <path
         d="M28039 21181 L28039 19535 "
         id="path1302" />
      <path
         d="M24007.4 21181.1 A393.701 393.701 0.0 0 0 24401.1 21574.8"
         id="path1304" />
      <path
         d="M27646.2 21574.8 A393.701 393.701 0.0 0 0 28039.9 21181.1"
         id="path1306" />
      <path
         d="M28385.8 18700.8 A1181.1 1181.1 0.0 0 0 28731.8 17865.6"
         id="path1308" />
      <path
         d="M28385.8 18700.8 A1181.1 1181.1 0.0 0 0 28039.9 19536"
         id="path1310" />
      <path
         d="M24007.4 19536 A1181.1 1181.1 0.0 0 0 23661.4 18700.8"
         id="path1312" />
      <path
         d="M23315.5 17865.6 A1181.1 1181.1 0.0 0 0 23661.4 18700.8"
         id="path1314" />
      <path
         d="M25677.7 15157.5 A2362.2 2362.2 0.0 0 0 23315.5 17519.7"
         id="path1316" />
      <path
         d="M28731.8 17519.7 A2362.2 2362.2 0.0 0 0 26369.6 15157.5"
         id="path1318" />
      <path
         d="M26369 22637 L25677 22637 "
         id="path1320" />
      <path
         d="M28731 25000 L28731 25345 "
         id="path1322" />
      <path
         d="M23315 25345 L23315 25000 "
         id="path1324" />
      <path
         d="M24401 29055 L27646 29055 "
         id="path1326" />
      <path
         d="M24007 27016 L24007 28661 "
         id="path1328" />
      <path
         d="M28039 28661 L28039 27016 "
         id="path1330" />
      <path
         d="M24007.4 28661.4 A393.701 393.701 0.0 0 0 24401.1 29055.1"
         id="path1332" />
      <path
         d="M27646.2 29055.1 A393.701 393.701 0.0 0 0 28039.9 28661.4"
         id="path1334" />
      <path
         d="M28385.8 26181.1 A1181.1 1181.1 0.0 0 0 28731.8 25345.9"
         id="path1336" />
      <path
         d="M28385.8 26181.1 A1181.1 1181.1 0.0 0 0 28039.9 27016.3"
         id="path1338" />
      <path
         d="M24007.4 27016.3 A1181.1 1181.1 0.0 0 0 23661.4 26181.1"
         id="path1340" />
      <path
         d="M23315.5 25345.9 A1181.1 1181.1 0.0 0 0 23661.4 26181.1"
         id="path1342" />
      <path
         d="M25677.7 22637.8 A2362.2 2362.2 0.0 0 0 23315.5 25000"
         id="path1344" />
      <path
         d="M28731.8 25000 A2362.2 2362.2 0.0 0 0 26369.6 22637.8"
         id="path1346" />
      <path
         d="M33849 984 L33158 984 "
         id="path1348" />
      <path
         d="M36212 3346 L36212 3692 "
         id="path1350" />
      <path
         d="M30795 3692 L30795 3346 "
         id="path1352" />
      <path
         d="M31881 7401 L35126 7401 "
         id="path1354" />
      <path
         d="M31487 5362 L31487 7007 "
         id="path1356" />
      <path
         d="M35520 7007 L35520 5362 "
         id="path1358" />
      <path
         d="M31487.7 7007.87 A393.701 393.701 0.0 0 0 31881.4 7401.57"
         id="path1360" />
      <path
         d="M35126.5 7401.57 A393.701 393.701 0.0 0 0 35520.2 7007.87"
         id="path1362" />
      <path
         d="M35866.1 4527.56 A1181.1 1181.1 0.0 0 0 36212.1 3692.39"
         id="path1364" />
      <path
         d="M35866.1 4527.56 A1181.1 1181.1 0.0 0 0 35520.2 5362.72"
         id="path1366" />
      <path
         d="M31487.7 5362.72 A1181.1 1181.1 0.0 0 0 31141.7 4527.56"
         id="path1368" />
      <path
         d="M30795.8 3692.39 A1181.1 1181.1 0.0 0 0 31141.7 4527.56"
         id="path1370" />
      <path
         d="M33158 984.252 A2362.2 2362.2 0.0 0 0 30795.8 3346.46"
         id="path1372" />
      <path
         d="M36212.1 3346.46 A2362.2 2362.2 0.0 0 0 33849.9 984.252"
         id="path1374" />
      <path
         d="M33849 8464 L33158 8464 "
         id="path1376" />
      <path
         d="M36212 10826 L36212 11172 "
         id="path1378" />
      <path
         d="M30795 11172 L30795 10826 "
         id="path1380" />
      <path
         d="M31881 14881 L35126 14881 "
         id="path1382" />
      <path
         d="M31487 12843 L31487 14488 "
         id="path1384" />
      <path
         d="M35520 14488 L35520 12843 "
         id="path1386" />
      <path
         d="M31487.7 14488.2 A393.701 393.701 0.0 0 0 31881.4 14881.9"
         id="path1388" />
      <path
         d="M35126.5 14881.9 A393.701 393.701 0.0 0 0 35520.2 14488.2"
         id="path1390" />
      <path
         d="M35866.1 12007.9 A1181.1 1181.1 0.0 0 0 36212.1 11172.7"
         id="path1392" />
      <path
         d="M35866.1 12007.9 A1181.1 1181.1 0.0 0 0 35520.2 12843"
         id="path1394" />
      <path
         d="M31487.7 12843 A1181.1 1181.1 0.0 0 0 31141.7 12007.9"
         id="path1396" />
      <path
         d="M30795.8 11172.7 A1181.1 1181.1 0.0 0 0 31141.7 12007.9"
         id="path1398" />
      <path
         d="M33158 8464.57 A2362.2 2362.2 0.0 0 0 30795.8 10826.8"
         id="path1400" />
      <path
         d="M36212.1 10826.8 A2362.2 2362.2 0.0 0 0 33849.9 8464.57"
         id="path1402" />
      <path
         d="M33849 15944 L33158 15944 "
         id="path1404" />
      <path
         d="M36212 18307 L36212 18653 "
         id="path1406" />
      <path
         d="M30795 18653 L30795 18307 "
         id="path1408" />
      <path
         d="M31881 22362 L35126 22362 "
         id="path1410" />
      <path
         d="M31487 20323 L31487 21968 "
         id="path1412" />
      <path
         d="M35520 21968 L35520 20323 "
         id="path1414" />
      <path
         d="M31487.7 21968.5 A393.701 393.701 0.0 0 0 31881.4 22362.2"
         id="path1416" />
      <path
         d="M35126.5 22362.2 A393.701 393.701 0.0 0 0 35520.2 21968.5"
         id="path1418" />
      <path
         d="M35866.1 19488.2 A1181.1 1181.1 0.0 0 0 36212.1 18653"
         id="path1420" />
      <path
         d="M35866.1 19488.2 A1181.1 1181.1 0.0 0 0 35520.2 20323.4"
         id="path1422" />
      <path
         d="M31487.7 20323.4 A1181.1 1181.1 0.0 0 0 31141.7 19488.2"
         id="path1424" />
      <path
         d="M30795.8 18653 A1181.1 1181.1 0.0 0 0 31141.7 19488.2"
         id="path1426" />
      <path
         d="M33158 15944.9 A2362.2 2362.2 0.0 0 0 30795.8 18307.1"
         id="path1428" />
      <path
         d="M36212.1 18307.1 A2362.2 2362.2 0.0 0 0 33849.9 15944.9"
         id="path1430" />
      <path
         d="M33849 23425 L33158 23425 "
         id="path1432" />
      <path
         d="M36212 25787 L36212 26133 "
         id="path1434" />
      <path
         d="M30795 26133 L30795 25787 "
         id="path1436" />
      <path
         d="M31881 29842 L35126 29842 "
         id="path1438" />
      <path
         d="M31487 27803 L31487 29448 "
         id="path1440" />
      <path
         d="M35520 29448 L35520 27803 "
         id="path1442" />
      <path
         d="M31487.7 29448.8 A393.701 393.701 0.0 0 0 31881.4 29842.5"
         id="path1444" />
      <path
         d="M35126.5 29842.5 A393.701 393.701 0.0 0 0 35520.2 29448.8"
         id="path1446" />
      <path
         d="M35866.1 26968.5 A1181.1 1181.1 0.0 0 0 36212.1 26133.3"
         id="path1448" />
      <path
         d="M35866.1 26968.5 A1181.1 1181.1 0.0 0 0 35520.2 27803.7"
         id="path1450" />
      <path
         d="M31487.7 27803.7 A1181.1 1181.1 0.0 0 0 31141.7 26968.5"
         id="path1452" />
      <path
         d="M30795.8 26133.3 A1181.1 1181.1 0.0 0 0 31141.7 26968.5"
         id="path1454" />
      <path
         d="M33158 23425.2 A2362.2 2362.2 0.0 0 0 30795.8 25787.4"
         id="path1456" />
      <path
         d="M36212.1 25787.4 A2362.2 2362.2 0.0 0 0 33849.9 23425.2"
         id="path1458" />
      <path
         d="M41330 1771 L40638 1771 "
         id="path1460" />
      <path
         d="M43692 4133 L43692 4479 "
         id="path1462" />
      <path
         d="M38276 4479 L38276 4133 "
         id="path1464" />
      <path
         d="M39361 8188 L42606 8188 "
         id="path1466" />
      <path
         d="M38967 6150 L38967 7795 "
         id="path1468" />
      <path
         d="M43000 7795 L43000 6150 "
         id="path1470" />
      <path
         d="M38968 7795.28 A393.701 393.701 0.0 0 0 39361.7 8188.98"
         id="path1472" />
      <path
         d="M42606.8 8188.98 A393.701 393.701 0.0 0 0 43000.5 7795.28"
         id="path1474" />
      <path
         d="M43346.5 5314.96 A1181.1 1181.1 0.0 0 0 43692.4 4479.8"
         id="path1476" />
      <path
         d="M43346.5 5314.96 A1181.1 1181.1 0.0 0 0 43000.5 6150.13"
         id="path1478" />
      <path
         d="M38968 6150.13 A1181.1 1181.1 0.0 0 0 38622 5314.96"
         id="path1480" />
      <path
         d="M38276.1 4479.8 A1181.1 1181.1 0.0 0 0 38622 5314.96"
         id="path1482" />
      <path
         d="M40638.3 1771.65 A2362.2 2362.2 0.0 0 0 38276.1 4133.86"
         id="path1484" />
      <path
         d="M43692.4 4133.86 A2362.2 2362.2 0.0 0 0 41330.2 1771.65"
         id="path1486" />
      <path
         d="M41330 16732 L40638 16732 "
         id="path1488" />
      <path
         d="M43692 19094 L43692 19440 "
         id="path1490" />
      <path
         d="M38276 19440 L38276 19094 "
         id="path1492" />
      <path
         d="M39361 23149 L42606 23149 "
         id="path1494" />
      <path
         d="M38967 21110 L38967 22755 "
         id="path1496" />
      <path
         d="M43000 22755 L43000 21110 "
         id="path1498" />
      <path
         d="M38968 22755.9 A393.701 393.701 0.0 0 0 39361.7 23149.6"
         id="path1500" />
      <path
         d="M42606.8 23149.6 A393.701 393.701 0.0 0 0 43000.5 22755.9"
         id="path1502" />
      <path
         d="M43346.5 20275.6 A1181.1 1181.1 0.0 0 0 43692.4 19440.4"
         id="path1504" />
      <path
         d="M43346.5 20275.6 A1181.1 1181.1 0.0 0 0 43000.5 21110.8"
         id="path1506" />
      <path
         d="M38968 21110.8 A1181.1 1181.1 0.0 0 0 38622 20275.6"
         id="path1508" />
      <path
         d="M38276.1 19440.4 A1181.1 1181.1 0.0 0 0 38622 20275.6"
         id="path1510" />
      <path
         d="M40638.3 16732.3 A2362.2 2362.2 0.0 0 0 38276.1 19094.5"
         id="path1512" />
      <path
         d="M43692.4 19094.5 A2362.2 2362.2 0.0 0 0 41330.2 16732.3"
         id="path1514" />
      <path
         d="M41330 24212 L40638 24212 "
         id="path1516" />
      <path
         d="M43692 26574 L43692 26920 "
         id="path1518" />
      <path
         d="M38276 26920 L38276 26574 "
         id="path1520" />
      <path
         d="M39361 30629 L42606 30629 "
         id="path1522" />
      <path
         d="M38967 28591 L38967 30236 "
         id="path1524" />
      <path
         d="M43000 30236 L43000 28591 "
         id="path1526" />
      <path
         d="M38968 30236.2 A393.701 393.701 0.0 0 0 39361.7 30629.9"
         id="path1528" />
      <path
         d="M42606.8 30629.9 A393.701 393.701 0.0 0 0 43000.5 30236.2"
         id="path1530" />
      <path
         d="M43346.5 27755.9 A1181.1 1181.1 0.0 0 0 43692.4 26920.7"
         id="path1532" />
      <path
         d="M43346.5 27755.9 A1181.1 1181.1 0.0 0 0 43000.5 28591.1"
         id="path1534" />
      <path
         d="M38968 28591.1 A1181.1 1181.1 0.0 0 0 38622 27755.9"
         id="path1536" />
      <path
         d="M38276.1 26920.7 A1181.1 1181.1 0.0 0 0 38622 27755.9"
         id="path1538" />
      <path
         d="M40638.3 24212.6 A2362.2 2362.2 0.0 0 0 38276.1 26574.8"
         id="path1540" />
      <path
         d="M43692.4 26574.8 A2362.2 2362.2 0.0 0 0 41330.2 24212.6"
         id="path1542" />
      <path
         d="M52179 32320 L51690 32809 "
         id="path1544" />
      <path
         d="M52179 28979 L51934 28734 "
         id="path1546" />
      <path
         d="M48105 32564 L48349 32809 "
         id="path1548" />
      <path
         d="M46249 29174 L48544 26879 "
         id="path1550" />
      <path
         d="M47413 30894 L46249 29731 "
         id="path1552" />
      <path
         d="M49101 26879 L50264 28043 "
         id="path1554" />
      <path
         d="M46249.9 29174.4 A393.701 393.701 0.0 0 0 46249.9 29731.2"
         id="path1556" />
      <path
         d="M49101.3 26879.8 A393.701 393.701 0.0 0 0 48544.5 26879.8"
         id="path1558" />
      <path
         d="M51934.9 28735 A1181.1 1181.1 0.0 0 0 51099.8 28389"
         id="path1560" />
      <path
         d="M50264.6 28043.1 A1181.1 1181.1 0.0 0 0 51099.8 28389"
         id="path1562" />
      <path
         d="M47759.1 31729.7 A1181.1 1181.1 0.0 0 0 47413.2 30894.5"
         id="path1564" />
      <path
         d="M47759.1 31729.7 A1181.1 1181.1 0.0 0 0 48105 32564.8"
         id="path1566" />
      <path
         d="M48349.7 32809.5 A2362.2 2362.2 0.0 0 0 51690.3 32809.5"
         id="path1568" />
      <path
         d="M52179.5 32320.2 A2362.2 2362.2 0.0 0 0 52179.5 28979.6"
         id="path1570" />
      <path
         d="M57468 37609 L56979 38098 "
         id="path1572" />
      <path
         d="M57468 34268 L57224 34024 "
         id="path1574" />
      <path
         d="M53394 37854 L53639 38098 "
         id="path1576" />
      <path
         d="M51539 34463 L53833 32169 "
         id="path1578" />
      <path
         d="M52702 36183 L51539 35020 "
         id="path1580" />
      <path
         d="M54390 32169 L55553 33332 "
         id="path1582" />
      <path
         d="M51539.2 34463.8 A393.701 393.701 0.0 0 0 51539.2 35020.6"
         id="path1584" />
      <path
         d="M54390.7 32169.2 A393.701 393.701 0.0 0 0 53833.9 32169.2"
         id="path1586" />
      <path
         d="M57224.3 34024.3 A1181.1 1181.1 0.0 0 0 56389.1 33678.4"
         id="path1588" />
      <path
         d="M55554 33332.5 A1181.1 1181.1 0.0 0 0 56389.1 33678.4"
         id="path1590" />
      <path
         d="M53048.5 37019.1 A1181.1 1181.1 0.0 0 0 52702.5 36183.9"
         id="path1592" />
      <path
         d="M53048.5 37019.1 A1181.1 1181.1 0.0 0 0 53394.4 37854.2"
         id="path1594" />
      <path
         d="M53639 38098.8 A2362.2 2362.2 0.0 0 0 56979.7 38098.8"
         id="path1596" />
      <path
         d="M57468.9 37609.6 A2362.2 2362.2 0.0 0 0 57468.9 34269"
         id="path1598" />
      <circle
         cx="45826.8"
         cy="26968.5"
         r="610.236"
         id="circle1600" />
      <circle
         cx="37126"
         cy="8307.09"
         r="610.236"
         id="circle1602" />
      <circle
         cx="7401.57"
         cy="9251.97"
         r="610.236"
         id="circle1604" />
      <circle
         cx="15000"
         cy="23110.2"
         r="610.236"
         id="circle1606" />
      <g
         id="g1608" />
      <g
         id="g1610" />
      <g
         id="g1612" />
      <g
         id="g1614" />
      <g
         id="g1616" />
      <g
         id="g1618" />
      <g
         id="g1620" />
      <g
         id="g1622" />
      <g
         id="g1624" />
      <g
         id="g1626" />
      <g
         id="g1628" />
      <g
         id="g1630" />
      <g
         id="g1632" />
      <g
         id="g1634" />
      <g
         id="g1636" />
      <g
         id="g1638" />
      <g
         id="g1640" />
      <g
         id="g1642" />
      <g
         id="g1644" />
      <g
         id="g1646" />
      <g
         id="g1648" />
      <g
         id="g1650" />
      <g
         id="g1652" />
      <g
         id="g1654" />
      <g
         id="g1656" />
      <g
         id="g1658" />
      <g
         id="g1660" />
      <g
         id="g1662" />
      <g
         id="g1664" />
      <g
         id="g1666" />
      <g
         id="g1668" />
      <g
         id="g1670" />
      <g
         id="g1672" />
      <g
         id="g1674" />
      <g
         id="g1676" />
      <g
         id="g1678" />
    </g>
    <g
       style="fill:#000000; fill-opacity:0.0;  stroke:#000000; stroke-width:118.11; stroke-opacity:1;  stroke-linecap:round; stroke-linejoin:round;"
       id="g1682" />
    <g
       style="fill:#C200C2; fill-opacity:0.0;  stroke:#C200C2; stroke-width:118.11; stroke-opacity:1;  stroke-linecap:round; stroke-linejoin:round;"
       id="g1684" />
    <g
       style="fill:#C200C2; fill-opacity:0.0;  stroke:#C200C2; stroke-width:59.0551; stroke-opacity:1;  stroke-linecap:round; stroke-linejoin:round;"
       id="g1810">
      <path
         d="M14704 1082 L-255 1082 "
         id="path1686" />
      <path
         d="M14704 -98 L14704 1082 "
         id="path1688" />
      <path
         d="M22185 -98 L14704 -98 "
         id="path1690" />
      <path
         d="M22185 -885 L22185 -98 "
         id="path1692" />
      <path
         d="M29862 -885 L22185 -885 "
         id="path1694" />
      <path
         d="M29862 -98 L29862 -885 "
         id="path1696" />
      <path
         d="M37342 -98 L29862 -98 "
         id="path1698" />
      <path
         d="M37342 688 L37342 -98 "
         id="path1700" />
      <path
         d="M44822 688 L37342 688 "
         id="path1702" />
      <path
         d="M44822 30314 L44822 688 "
         id="path1704" />
      <path
         d="M49960 25236 L44822 30314 "
         id="path1706" />
      <path
         d="M60708 35905 L49960 25236 "
         id="path1708" />
      <path
         d="M55275 41377 L60708 35905 "
         id="path1710" />
      <path
         d="M44724 30807 L55275 41377 "
         id="path1712" />
      <path
         d="M37145 30807 L44724 30807 "
         id="path1714" />
      <path
         d="M37145 30019 L37145 30807 "
         id="path1716" />
      <path
         d="M29665 30019 L37145 30019 "
         id="path1718" />
      <path
         d="M29665 29232 L29665 30019 "
         id="path1720" />
      <path
         d="M22381 29232 L29665 29232 "
         id="path1722" />
      <path
         d="M22381 30019 L22381 29232 "
         id="path1724" />
      <path
         d="M14901 30019 L22381 30019 "
         id="path1726" />
      <path
         d="M14901 31200 L14901 30019 "
         id="path1728" />
      <path
         d="M7224 31200 L14901 31200 "
         id="path1730" />
      <path
         d="M7224 23720 L7224 31200 "
         id="path1732" />
      <path
         d="M-255 23720 L7224 23720 "
         id="path1734" />
      <path
         d="M-255 1082 L-255 23720 "
         id="path1736" />
      <g
         id="g1738" />
      <g
         id="g1740" />
      <g
         id="g1742" />
      <g
         id="g1744" />
      <g
         id="g1746" />
      <g
         id="g1748" />
      <g
         id="g1750" />
      <g
         id="g1752" />
      <g
         id="g1754" />
      <g
         id="g1756" />
      <g
         id="g1758" />
      <g
         id="g1760" />
      <g
         id="g1762" />
      <g
         id="g1764" />
      <g
         id="g1766" />
      <g
         id="g1768" />
      <g
         id="g1770" />
      <g
         id="g1772" />
      <g
         id="g1774" />
      <g
         id="g1776" />
      <g
         id="g1778" />
      <g
         id="g1780" />
      <g
         id="g1782" />
      <g
         id="g1784" />
      <g
         id="g1786" />
      <g
         id="g1788" />
      <g
         id="g1790" />
      <g
         id="g1792" />
      <g
         id="g1794" />
      <g
         id="g1796" />
      <g
         id="g1798" />
      <g
         id="g1800" />
      <g
         id="g1802" />
      <g
         id="g1804" />
      <g
         id="g1806" />
      <g
         id="g1808" />
    </g>
    <g
       style="fill:#000000; fill-opacity:0.0;  stroke:#000000; stroke-width:59.0551; stroke-opacity:1;  stroke-linecap:round; stroke-linejoin:round;"
       id="g1812" />
    <g
       style="fill:#C2C200; fill-opacity:0.0;  stroke:#C2C200; stroke-width:59.0551; stroke-opacity:1;  stroke-linecap:round; stroke-linejoin:round;"
       id="g1814" />
    <g
       style="fill:#C2C200; fill-opacity:0.0;  stroke:#C2C200; stroke-width:118.11; stroke-opacity:1;  stroke-linecap:round; stroke-linejoin:round;"
       id="g1994">
      <path
         d="M43740.2 9547.24 A393.701 393.701 0.0 0 0 44133.9 9940.94"
         id="path1816" />
      <path
         d="M43740 3740 L43740 9547 "
         id="path1818" />
      <path
         d="M44527.6 10334.6 A393.701 393.701 0.0 0 0 44133.9 9940.94"
         id="path1820" />
      <path
         d="M45314 15944 L47283 15944 "
         id="path1822" />
      <path
         d="M48858 17519 L48858 24721 "
         id="path1824" />
      <path
         d="M48858.3 24721.6 A393.701 393.701 0.0 0 0 48973.6 25000"
         id="path1826" />
      <path
         d="M44527 10334 L44527 15157 "
         id="path1828" />
      <path
         d="M48858.3 17519.7 A1574.8 1574.8 0.0 0 0 47283.5 15944.9"
         id="path1830" />
      <path
         d="M44527.6 15157.5 A787.402 787.402 0.0 0 0 45315 15944.9"
         id="path1832" />
      <path
         d="M46498.9 31020.8 A393.701 393.701 0.0 0 0 46220.5 30905.5"
         id="path1834" />
      <path
         d="M39015 30905 L46220 30905 "
         id="path1836" />
      <path
         d="M48973 25000 L57716 33661 "
         id="path1838" />
      <path
         d="M56732 38385 L57744 37360 "
         id="path1840" />
      <path
         d="M57744.9 37360.5 A2528.29 2528.29 0.0 0 0 57716.5 33661.4"
         id="path1842" />
      <path
         d="M46498 31020 L53877 38385 "
         id="path1844" />
      <path
         d="M53878 38385.8 A2018.32 2018.32 0.0 0 0 56732.3 38385.8"
         id="path1846" />
      <path
         d="M35866 1771 L41771 1771 "
         id="path1848" />
      <path
         d="M43740.2 3740.16 A1968.5 1968.5 0.0 0 0 41771.7 1771.65"
         id="path1850" />
      <path
         d="M28385 984 L35078 984 "
         id="path1852" />
      <path
         d="M24448 196 L27598 196 "
         id="path1854" />
      <path
         d="M31535 30118 L38228 30118 "
         id="path1856" />
      <path
         d="M21988 29330 L30748 29330 "
         id="path1858" />
      <path
         d="M38622 30511.8 A393.701 393.701 0.0 0 0 39015.7 30905.5"
         id="path1860" />
      <path
         d="M31141.7 29724.4 A393.701 393.701 0.0 0 0 31535.4 30118.1"
         id="path1862" />
      <path
         d="M38622 30511.8 A393.701 393.701 0.0 0 0 38228.3 30118.1"
         id="path1864" />
      <path
         d="M31141.7 29724.4 A393.701 393.701 0.0 0 0 30748 29330.7"
         id="path1866" />
      <path
         d="M35472.4 1377.95 A393.701 393.701 0.0 0 0 35078.7 984.252"
         id="path1868" />
      <path
         d="M35472.4 1377.95 A393.701 393.701 0.0 0 0 35866.1 1771.65"
         id="path1870" />
      <path
         d="M27992.1 590.551 A393.701 393.701 0.0 0 0 27598.4 196.85"
         id="path1872" />
      <path
         d="M27992.1 590.551 A393.701 393.701 0.0 0 0 28385.8 984.252"
         id="path1874" />
      <path
         d="M14606 30118 L21200 30118 "
         id="path1876" />
      <path
         d="M14212 30905 L14212 30511 "
         id="path1878" />
      <path
         d="M9094 31299 L13818 31299 "
         id="path1880" />
      <path
         d="M8307 24606 L8307 30511 "
         id="path1882" />
      <path
         d="M8307.09 30511.8 A787.402 787.402 0.0 0 0 9094.49 31299.2"
         id="path1884" />
      <path
         d="M21200.8 30118.1 A393.701 393.701 0.0 0 0 21594.5 29724.4"
         id="path1886" />
      <path
         d="M13818.9 31299.2 A393.701 393.701 0.0 0 0 14212.6 30905.5"
         id="path1888" />
      <path
         d="M1614 23818 L7519 23818 "
         id="path1890" />
      <path
         d="M826 4133 L826 23031 "
         id="path1892" />
      <path
         d="M16771 984 L23661 984 "
         id="path1894" />
      <path
         d="M16377 1771 L16377 1377 "
         id="path1896" />
      <path
         d="M2795 2165 L15984 2165 "
         id="path1898" />
      <path
         d="M21988.2 29330.7 A393.701 393.701 0.0 0 0 21594.5 29724.4"
         id="path1900" />
      <path
         d="M14606.3 30118.1 A393.701 393.701 0.0 0 0 14212.6 30511.8"
         id="path1902" />
      <path
         d="M24448.8 196.85 A393.701 393.701 0.0 0 0 24055.1 590.551"
         id="path1904" />
      <path
         d="M16771.7 984.252 A393.701 393.701 0.0 0 0 16378 1377.95"
         id="path1906" />
      <path
         d="M23661.4 984.252 A393.701 393.701 0.0 0 0 24055.1 590.551"
         id="path1908" />
      <path
         d="M15984.3 2165.35 A393.701 393.701 0.0 0 0 16378 1771.65"
         id="path1910" />
      <path
         d="M826.772 23031.5 A787.402 787.402 0.0 0 0 1614.17 23818.9"
         id="path1912" />
      <path
         d="M8307.09 24606.3 A787.402 787.402 0.0 0 0 7519.69 23818.9"
         id="path1914" />
      <path
         d="M826 4133 L826 2952 "
         id="path1916" />
      <path
         d="M1614.17 2165.35 A787.402 787.402 0.0 0 0 826.772 2952.76"
         id="path1918" />
      <path
         d="M1614 2165 L2795 2165 "
         id="path1920" />
      <g
         id="g1922" />
      <g
         id="g1924" />
      <g
         id="g1926" />
      <g
         id="g1928" />
      <g
         id="g1930" />
      <g
         id="g1932" />
      <g
         id="g1934" />
      <g
         id="g1936" />
      <g
         id="g1938" />
      <g
         id="g1940" />
      <g
         id="g1942" />
      <g
         id="g1944" />
      <g
         id="g1946" />
      <g
         id="g1948" />
      <g
         id="g1950" />
      <g
         id="g1952" />
      <g
         id="g1954" />
      <g
         id="g1956" />
      <g
         id="g1958" />
      <g
         id="g1960" />
      <g
         id="g1962" />
      <g
         id="g1964" />
      <g
         id="g1966" />
      <g
         id="g1968" />
      <g
         id="g1970" />
      <g
         id="g1972" />
      <g
         id="g1974" />
      <g
         id="g1976" />
      <g
         id="g1978" />
      <g
         id="g1980" />
      <g
         id="g1982" />
      <g
         id="g1984" />
      <g
         id="g1986" />
      <g
         id="g1988" />
      <g
         id="g1990" />
      <g
         id="g1992" />
    </g>
  </g>
</svg>
